<svg width="419" height="660" viewBox="0 0 419 660" fill="none" xmlns="http://www.w3.org/2000/svg">
<g filter="url(#filter0_d_0_4910)">
<path fill-rule="evenodd" clip-rule="evenodd" d="M88.776 55.5695H280.009C298.35 55.5695 313.217 69.8048 313.217 87.365V522.635C313.217 540.195 298.35 554.431 280.009 554.431H88.776C70.4357 554.431 55.5679 540.195 55.5679 522.635V87.365C55.5679 69.8048 70.4357 55.5695 88.776 55.5695Z" fill="#213648"/>
</g>
<path opacity="0.595562" fill-rule="evenodd" clip-rule="evenodd" d="M280.749 55H87.9226C78.92 55.549 70.6174 59.6569 63.0146 67.3239C67.9041 63.0559 76.6249 57.3446 88.1546 57.3446C88.1546 57.3446 272.83 57.3446 280.517 57.3446C292.046 57.3446 300.767 63.0559 305.656 67.3239C298.054 59.6569 289.751 55.549 280.749 55Z" fill="url(#paint0_linear_0_4910)" fill-opacity="0.65"/>
<path opacity="0.75" fill-rule="evenodd" clip-rule="evenodd" d="M307.999 517.671V89.9818C307.999 78.5065 303.782 74.2644 301.266 71.5405C298.75 68.8166 298.643 67.4272 302.258 69.4839C305.873 71.5405 313.103 77.5306 313.103 89.9818V517.671C313.103 530.122 305.873 536.112 302.258 538.169C298.643 540.225 298.75 538.836 301.266 536.112C303.782 533.388 307.999 529.146 307.999 517.671Z" fill="url(#paint1_linear_0_4910)"/>
<path opacity="0.75" fill-rule="evenodd" clip-rule="evenodd" d="M60.672 517.671V89.9818C60.672 78.5065 64.8894 74.2644 67.4053 71.5405C69.9212 68.8166 70.0283 67.4272 66.4134 69.4839C62.7984 71.5405 55.568 77.5306 55.568 89.9818V517.671C55.568 530.122 62.7984 536.112 66.4134 538.169C70.0283 540.225 69.9212 538.836 67.4053 536.112C64.8894 533.388 60.672 529.146 60.672 517.671Z" fill="url(#paint2_linear_0_4910)"/>
<path fill-rule="evenodd" clip-rule="evenodd" d="M53 158.557C53 157.452 53.8954 156.557 55 156.557H55.9645C57.0691 156.557 57.9645 157.452 57.9645 158.557V218.907C57.9645 220.012 57.0691 220.907 55.9645 220.907H55C53.8954 220.907 53 220.012 53 218.907V158.557Z" fill="#2E423C"/>
<path fill-rule="evenodd" clip-rule="evenodd" d="M310.535 211.043C310.535 209.939 311.431 209.043 312.535 209.043H313.5C314.605 209.043 315.5 209.939 315.5 211.043V253.993C315.5 255.098 314.605 255.993 313.5 255.993H312.535C311.431 255.993 310.535 255.098 310.535 253.993V211.043Z" fill="#2E423C"/>
<g clip-path="url(#clip0_0_4910)">
<path fill-rule="evenodd" clip-rule="evenodd" d="M161.676 67.4445L87.2698 67.4445C76.1653 67.4445 68.0742 75.0078 68.0742 84.8859V507.276C68.0742 520.155 80.5765 531.567 94.7134 531.567H274.046C287.664 531.567 300.686 520.067 300.686 507.276V86.0276C300.686 74.188 291.896 67.5149 281.49 67.4445L205.904 67.4445C205.618 67.4914 200.425 69.6262 198.231 75.0078C196.036 80.3893 191.621 84.6793 186.787 84.6793H181.172C178.874 84.6793 172.824 82.4496 169.76 75.0078C166.697 67.5659 161.963 67.4914 161.676 67.4445Z" fill="white"/>
<mask id="mask0_0_4910" style="mask-type:luminance" maskUnits="userSpaceOnUse" x="68" y="67" width="233" height="465">
<path fill-rule="evenodd" clip-rule="evenodd" d="M161.676 67.4445L87.2698 67.4445C76.1653 67.4445 68.0742 75.0078 68.0742 84.8859V507.276C68.0742 520.155 80.5765 531.567 94.7134 531.567H274.046C287.664 531.567 300.686 520.067 300.686 507.276V86.0276C300.686 74.188 291.896 67.5149 281.49 67.4445L205.904 67.4445C205.618 67.4914 200.425 69.6262 198.231 75.0078C196.036 80.3893 191.621 84.6793 186.787 84.6793H181.172C178.874 84.6793 172.824 82.4496 169.76 75.0078C166.697 67.5659 161.963 67.4914 161.676 67.4445Z" fill="white"/>
</mask>
<g mask="url(#mask0_0_4910)">
<rect x="68" y="67.4445" width="233" height="465" fill="url(#paint3_linear_0_4910)"/>
<path d="M147.504 196V178.672H143.376V176.032C144.699 176.032 145.765 175.909 146.576 175.664C147.397 175.408 148.011 175.045 148.416 174.576C148.821 174.096 149.061 173.525 149.136 172.864H152.24V196H147.504ZM157.496 196V193.696V192.512C157.496 191.339 157.714 190.325 158.152 189.472C158.589 188.608 159.165 187.861 159.88 187.232C160.605 186.592 161.394 186.032 162.248 185.552C163.112 185.072 163.976 184.619 164.84 184.192C165.704 183.765 166.493 183.339 167.208 182.912C167.933 182.475 168.514 181.989 168.952 181.456C169.389 180.923 169.608 180.293 169.608 179.568C169.608 178.64 169.282 177.883 168.632 177.296C167.992 176.709 167.112 176.416 165.992 176.416C164.829 176.416 163.842 176.752 163.032 177.424C162.221 178.096 161.72 179.109 161.528 180.464H157.064C157.085 178.992 157.426 177.659 158.088 176.464C158.76 175.259 159.762 174.304 161.096 173.6C162.429 172.896 164.104 172.544 166.12 172.544C167.848 172.544 169.336 172.837 170.584 173.424C171.842 174.011 172.813 174.827 173.496 175.872C174.178 176.917 174.52 178.139 174.52 179.536C174.52 180.699 174.306 181.701 173.88 182.544C173.453 183.387 172.888 184.107 172.184 184.704C171.48 185.301 170.706 185.824 169.864 186.272C169.021 186.72 168.178 187.136 167.336 187.52C166.504 187.904 165.736 188.299 165.032 188.704C164.328 189.099 163.762 189.547 163.336 190.048C162.909 190.549 162.696 191.152 162.696 191.856V192.064H174.488V196H157.496ZM182.704 179.856V184.864H177.584V179.856H182.704ZM182.704 190.912V195.904H177.584V190.912H182.704ZM196.451 172.864H201.043V186.96H204.611V190.88H201.043V196H196.547L196.563 190.88H185.907V187.04L196.451 172.864ZM190.227 186.96H196.563V178.48L190.227 186.96ZM215.435 196.352C213.995 196.352 212.651 196.075 211.403 195.52C210.155 194.965 209.137 194.187 208.347 193.184C207.558 192.171 207.115 190.987 207.019 189.632H211.467C211.659 190.528 212.086 191.259 212.747 191.824C213.409 192.379 214.241 192.656 215.243 192.656C216.353 192.656 217.323 192.395 218.155 191.872C218.998 191.349 219.627 190.517 220.043 189.376C220.47 188.235 220.619 186.741 220.491 184.896C220.193 185.461 219.777 185.957 219.243 186.384C218.721 186.8 218.107 187.125 217.403 187.36C216.699 187.584 215.915 187.696 215.051 187.696C213.483 187.696 212.091 187.403 210.875 186.816C209.67 186.219 208.721 185.376 208.027 184.288C207.345 183.189 207.003 181.888 207.003 180.384C207.003 178.869 207.366 177.52 208.091 176.336C208.817 175.152 209.83 174.224 211.131 173.552C212.433 172.88 213.958 172.544 215.707 172.544C217.67 172.544 219.361 173.013 220.779 173.952C222.209 174.88 223.302 176.203 224.059 177.92C224.827 179.627 225.211 181.637 225.211 183.952C225.211 186.715 224.817 189.019 224.027 190.864C223.249 192.699 222.129 194.075 220.667 194.992C219.206 195.899 217.462 196.352 215.435 196.352ZM215.851 183.984C216.502 183.984 217.131 183.84 217.739 183.552C218.358 183.253 218.865 182.88 219.259 182.432C219.654 181.984 219.851 181.52 219.851 181.04C219.862 180.005 219.697 179.12 219.355 178.384C219.025 177.637 218.555 177.067 217.947 176.672C217.35 176.277 216.651 176.08 215.851 176.08C215.115 176.08 214.459 176.251 213.883 176.592C213.307 176.933 212.854 177.413 212.523 178.032C212.193 178.651 212.027 179.365 212.027 180.176C212.027 181.381 212.379 182.32 213.083 182.992C213.787 183.653 214.71 183.984 215.851 183.984Z" fill="white"/>
</g>
</g>
<g clip-path="url(#clip1_0_4910)">
<g filter="url(#filter1_d_0_4910)">
<rect x="75" y="222" width="218" height="87" rx="5" fill="#FBFCFE"/>
</g>
<g clip-path="url(#clip2_0_4910)">
<path d="M91.81 248V240.77H94.47C94.9967 240.77 95.4683 240.862 95.885 241.045C96.3017 241.225 96.63 241.492 96.87 241.845C97.1133 242.198 97.235 242.63 97.235 243.14C97.235 243.62 97.1283 244.03 96.915 244.37C96.7017 244.71 96.4017 244.97 96.015 245.15C95.6317 245.33 95.18 245.42 94.66 245.42H93.28V248H91.81ZM93.265 244.29H94.62C94.9867 244.29 95.2867 244.173 95.52 243.94C95.7533 243.703 95.87 243.412 95.87 243.065C95.87 242.705 95.7467 242.42 95.5 242.21C95.2533 241.997 94.9533 241.89 94.6 241.89H93.265V244.29ZM99.5117 248.1C99.1817 248.1 98.8851 248.038 98.6217 247.915C98.3584 247.792 98.1501 247.613 97.9967 247.38C97.8434 247.143 97.7667 246.857 97.7667 246.52C97.7667 245.953 97.9784 245.523 98.4017 245.23C98.8251 244.933 99.4934 244.78 100.407 244.77L101.052 244.76V244.45C101.052 244.213 100.982 244.032 100.842 243.905C100.705 243.775 100.492 243.712 100.202 243.715C99.9884 243.718 99.7851 243.768 99.5917 243.865C99.4017 243.962 99.2717 244.13 99.2017 244.37H97.9867C98.0067 243.997 98.1151 243.69 98.3117 243.45C98.5084 243.207 98.7751 243.027 99.1117 242.91C99.4517 242.79 99.8367 242.73 100.267 242.73C100.797 242.73 101.222 242.797 101.542 242.93C101.862 243.06 102.093 243.248 102.237 243.495C102.38 243.738 102.452 244.028 102.452 244.365V248H101.232L101.112 247.11C100.935 247.483 100.713 247.742 100.447 247.885C100.183 248.028 99.8717 248.1 99.5117 248.1ZM100.002 247.14C100.135 247.14 100.263 247.117 100.387 247.07C100.513 247.02 100.625 246.955 100.722 246.875C100.822 246.792 100.902 246.698 100.962 246.595C101.022 246.492 101.052 246.385 101.052 246.275V245.51L100.527 245.52C100.283 245.523 100.057 245.553 99.8467 245.61C99.6367 245.663 99.4667 245.752 99.3367 245.875C99.2101 245.998 99.1467 246.165 99.1467 246.375C99.1467 246.615 99.2301 246.803 99.3967 246.94C99.5634 247.073 99.7651 247.14 100.002 247.14ZM104.364 249.65C104.01 249.65 103.76 249.62 103.614 249.56C103.47 249.503 103.399 249.475 103.399 249.475V248.545L103.909 248.565C104.132 248.578 104.312 248.567 104.449 248.53C104.585 248.497 104.689 248.452 104.759 248.395C104.832 248.338 104.884 248.278 104.914 248.215C104.944 248.155 104.965 248.107 104.979 248.07L105.074 247.785L103.064 242.83H104.509L105.749 246.2L107.004 242.83H108.429L106.334 248.03C106.154 248.47 105.964 248.807 105.764 249.04C105.564 249.273 105.347 249.433 105.114 249.52C104.884 249.607 104.634 249.65 104.364 249.65ZM108.218 248L110.808 240.77H112.348L114.933 248H113.478L112.888 246.325H110.288L109.683 248H108.218ZM110.613 245.05H112.538L111.583 242.18L110.613 245.05ZM116.019 248V240.77H118.679C119.206 240.77 119.677 240.862 120.094 241.045C120.511 241.225 120.839 241.492 121.079 241.845C121.322 242.198 121.444 242.63 121.444 243.14C121.444 243.62 121.337 244.03 121.124 244.37C120.911 244.71 120.611 244.97 120.224 245.15C119.841 245.33 119.389 245.42 118.869 245.42H117.489V248H116.019ZM117.474 244.29H118.829C119.196 244.29 119.496 244.173 119.729 243.94C119.962 243.703 120.079 243.412 120.079 243.065C120.079 242.705 119.956 242.42 119.709 242.21C119.462 241.997 119.162 241.89 118.809 241.89H117.474V244.29ZM122.542 240.77H123.997V248H122.542V240.77Z" fill="#BA4270"/>
<path opacity="0.5" d="M238.619 246.295C238.619 246.678 238.575 247.005 238.489 247.275C238.402 247.545 238.247 247.75 238.024 247.89C237.804 248.03 237.49 248.1 237.084 248.1C236.827 248.1 236.585 248.07 236.359 248.01C236.135 247.95 235.987 247.905 235.914 247.875L235.979 246.99C236.082 247.027 236.2 247.073 236.334 247.13C236.47 247.183 236.639 247.21 236.839 247.21C237.165 247.21 237.389 247.12 237.509 246.94C237.632 246.76 237.694 246.457 237.694 246.03V240.77H238.619V246.295ZM242.05 248.1C241.78 248.097 241.525 248.058 241.285 247.985C241.049 247.908 240.839 247.797 240.655 247.65C240.472 247.503 240.327 247.322 240.22 247.105C240.117 246.885 240.065 246.63 240.065 246.34V242.83H240.99V246.245C240.99 246.582 241.094 246.855 241.3 247.065C241.51 247.275 241.825 247.38 242.245 247.38C242.625 247.38 242.93 247.282 243.16 247.085C243.394 246.885 243.51 246.588 243.51 246.195V242.83H244.43V248H243.695L243.6 247.01C243.537 247.27 243.429 247.48 243.275 247.64C243.125 247.8 242.944 247.918 242.73 247.995C242.52 248.068 242.294 248.103 242.05 248.1ZM247.708 248.1C247.348 248.1 247.013 248.045 246.703 247.935C246.396 247.822 246.141 247.647 245.938 247.41C245.735 247.17 245.606 246.865 245.553 246.495H246.393C246.44 246.698 246.523 246.868 246.643 247.005C246.766 247.138 246.92 247.24 247.103 247.31C247.286 247.377 247.486 247.41 247.703 247.41C248.05 247.41 248.33 247.345 248.543 247.215C248.756 247.085 248.863 246.885 248.863 246.615C248.863 246.425 248.806 246.273 248.693 246.16C248.583 246.043 248.411 245.958 248.178 245.905L247.108 245.64C246.691 245.54 246.358 245.383 246.108 245.17C245.858 244.957 245.733 244.658 245.733 244.275C245.73 243.972 245.801 243.705 245.948 243.475C246.095 243.245 246.315 243.063 246.608 242.93C246.901 242.797 247.266 242.73 247.703 242.73C248.263 242.73 248.715 242.857 249.058 243.11C249.405 243.36 249.585 243.728 249.598 244.215H248.783C248.75 243.968 248.638 243.773 248.448 243.63C248.261 243.483 248.01 243.41 247.693 243.41C247.363 243.41 247.095 243.477 246.888 243.61C246.681 243.74 246.578 243.943 246.578 244.22C246.578 244.403 246.651 244.548 246.798 244.655C246.945 244.758 247.161 244.845 247.448 244.915L248.483 245.175C248.723 245.238 248.92 245.322 249.073 245.425C249.23 245.528 249.353 245.643 249.443 245.77C249.536 245.897 249.601 246.03 249.638 246.17C249.678 246.307 249.698 246.438 249.698 246.565C249.698 246.882 249.618 247.155 249.458 247.385C249.301 247.612 249.075 247.788 248.778 247.915C248.485 248.038 248.128 248.1 247.708 248.1ZM253.5 243.505H252.335V246.72C252.335 246.903 252.353 247.038 252.39 247.125C252.43 247.208 252.495 247.262 252.585 247.285C252.678 247.308 252.805 247.32 252.965 247.32H253.53V247.94C253.466 247.963 253.37 247.983 253.24 248C253.113 248.017 252.955 248.025 252.765 248.025C252.408 248.025 252.131 247.977 251.935 247.88C251.738 247.783 251.6 247.64 251.52 247.45C251.443 247.26 251.405 247.027 251.405 246.75V243.505H250.565V242.83H251.43L251.655 241.325H252.335V242.825H253.5V243.505ZM262.028 240.77H262.953V248H262.128L258.248 242.3V248H257.323V240.77H258.208L262.028 246.39V240.77ZM266.659 248.1C266.182 248.1 265.765 247.998 265.409 247.795C265.052 247.588 264.775 247.287 264.579 246.89C264.382 246.493 264.284 246.008 264.284 245.435C264.284 244.895 264.375 244.422 264.559 244.015C264.742 243.608 265.01 243.293 265.364 243.07C265.72 242.843 266.152 242.73 266.659 242.73C267.135 242.73 267.549 242.835 267.899 243.045C268.252 243.252 268.525 243.557 268.719 243.96C268.912 244.363 269.009 244.855 269.009 245.435C269.009 245.962 268.919 246.425 268.739 246.825C268.562 247.225 268.299 247.538 267.949 247.765C267.602 247.988 267.172 248.1 266.659 248.1ZM266.659 247.37C266.969 247.37 267.23 247.292 267.444 247.135C267.657 246.978 267.819 246.753 267.929 246.46C268.039 246.167 268.094 245.818 268.094 245.415C268.094 245.045 268.045 244.713 267.949 244.42C267.852 244.123 267.697 243.888 267.484 243.715C267.274 243.542 266.999 243.455 266.659 243.455C266.345 243.455 266.08 243.533 265.864 243.69C265.647 243.843 265.482 244.067 265.369 244.36C265.259 244.653 265.204 245.005 265.204 245.415C265.204 245.778 265.254 246.108 265.354 246.405C265.454 246.702 265.61 246.937 265.824 247.11C266.037 247.283 266.315 247.37 266.659 247.37ZM276.833 242.83L275.268 248H274.358L273.178 244.185L272.058 248H271.153L269.558 242.83H270.413L271.598 246.805H271.678L272.843 242.83H273.543L274.753 246.795H274.833L275.968 242.83H276.833Z" fill="#36536B"/>
</g>
<path d="M91.23 257.62V256.77H96.7V257.62H94.495V264H93.565V257.62H91.23ZM97.7025 264V256.57H98.6025V259.59C98.6892 259.447 98.8058 259.313 98.9525 259.19C99.0992 259.063 99.2775 258.962 99.4875 258.885C99.6975 258.805 99.9408 258.765 100.218 258.765C100.554 258.765 100.859 258.828 101.133 258.955C101.406 259.078 101.623 259.255 101.783 259.485C101.943 259.715 102.023 259.988 102.023 260.305V264H101.098V260.49C101.098 260.18 100.991 259.942 100.778 259.775C100.568 259.605 100.293 259.52 99.9525 259.52C99.7225 259.52 99.5058 259.558 99.3025 259.635C99.0992 259.708 98.9342 259.822 98.8075 259.975C98.6842 260.125 98.6225 260.317 98.6225 260.55V264H97.7025ZM104.124 261.63C104.124 261.957 104.178 262.253 104.284 262.52C104.394 262.783 104.559 262.993 104.779 263.15C105.003 263.307 105.281 263.385 105.614 263.385C105.944 263.385 106.228 263.308 106.464 263.155C106.704 263.002 106.858 262.78 106.924 262.49H107.799C107.736 262.84 107.596 263.135 107.379 263.375C107.163 263.615 106.901 263.797 106.594 263.92C106.288 264.04 105.968 264.1 105.634 264.1C105.151 264.1 104.726 263.995 104.359 263.785C103.993 263.575 103.706 263.273 103.499 262.88C103.293 262.487 103.189 262.015 103.189 261.465C103.189 260.922 103.283 260.445 103.469 260.035C103.656 259.625 103.926 259.305 104.279 259.075C104.636 258.845 105.064 258.73 105.564 258.73C106.051 258.73 106.463 258.835 106.799 259.045C107.136 259.255 107.391 259.552 107.564 259.935C107.741 260.315 107.829 260.767 107.829 261.29V261.63H104.124ZM104.129 261.005H106.939C106.939 260.708 106.889 260.442 106.789 260.205C106.689 259.965 106.536 259.777 106.329 259.64C106.126 259.5 105.869 259.43 105.559 259.43C105.236 259.43 104.968 259.508 104.754 259.665C104.544 259.818 104.386 260.017 104.279 260.26C104.176 260.5 104.126 260.748 104.129 261.005ZM111.345 265.61V258.83H112.265L112.275 259.73C112.335 259.623 112.412 259.512 112.505 259.395C112.602 259.278 112.718 259.17 112.855 259.07C112.995 258.97 113.157 258.888 113.34 258.825C113.527 258.762 113.738 258.73 113.975 258.73C114.388 258.73 114.752 258.825 115.065 259.015C115.382 259.202 115.628 259.488 115.805 259.875C115.982 260.262 116.07 260.752 116.07 261.345C116.07 261.938 115.983 262.44 115.81 262.85C115.64 263.257 115.393 263.567 115.07 263.78C114.747 263.993 114.357 264.1 113.9 264.1C113.67 264.1 113.465 264.067 113.285 264C113.108 263.937 112.953 263.853 112.82 263.75C112.69 263.643 112.58 263.53 112.49 263.41C112.403 263.29 112.332 263.175 112.275 263.065V265.61H111.345ZM113.725 263.38C114.152 263.38 114.5 263.218 114.77 262.895C115.04 262.568 115.175 262.062 115.175 261.375C115.175 260.785 115.052 260.317 114.805 259.97C114.558 259.623 114.198 259.45 113.725 259.45C113.245 259.45 112.882 259.628 112.635 259.985C112.388 260.338 112.265 260.802 112.265 261.375C112.265 261.745 112.32 262.082 112.43 262.385C112.54 262.688 112.703 262.93 112.92 263.11C113.137 263.29 113.405 263.38 113.725 263.38ZM118.654 264.1C118.321 264.1 118.026 264.042 117.769 263.925C117.512 263.805 117.311 263.633 117.164 263.41C117.021 263.187 116.949 262.917 116.949 262.6C116.949 262.027 117.149 261.6 117.549 261.32C117.949 261.04 118.591 260.89 119.474 260.87L120.399 260.845V260.44C120.399 260.123 120.304 259.873 120.114 259.69C119.924 259.503 119.629 259.41 119.229 259.41C118.932 259.413 118.671 259.483 118.444 259.62C118.221 259.757 118.076 259.98 118.009 260.29H117.194C117.214 259.953 117.309 259.67 117.479 259.44C117.649 259.207 117.886 259.03 118.189 258.91C118.496 258.79 118.857 258.73 119.274 258.73C119.724 258.73 120.097 258.793 120.394 258.92C120.694 259.047 120.917 259.233 121.064 259.48C121.214 259.727 121.289 260.03 121.289 260.39V264H120.499L120.434 263.03C120.234 263.433 119.979 263.713 119.669 263.87C119.362 264.023 119.024 264.1 118.654 264.1ZM118.934 263.435C119.107 263.435 119.279 263.403 119.449 263.34C119.622 263.277 119.781 263.192 119.924 263.085C120.067 262.975 120.181 262.853 120.264 262.72C120.351 262.583 120.396 262.443 120.399 262.3V261.415L119.629 261.43C119.236 261.437 118.906 261.477 118.639 261.55C118.376 261.623 118.177 261.738 118.044 261.895C117.914 262.052 117.849 262.257 117.849 262.51C117.849 262.8 117.949 263.027 118.149 263.19C118.352 263.353 118.614 263.435 118.934 263.435ZM123.213 265.65C122.909 265.65 122.701 265.628 122.588 265.585C122.474 265.542 122.418 265.52 122.418 265.52V264.92L122.943 264.93C123.136 264.937 123.296 264.923 123.423 264.89C123.549 264.857 123.651 264.812 123.728 264.755C123.804 264.698 123.863 264.635 123.903 264.565C123.946 264.495 123.981 264.428 124.008 264.365L124.188 263.875L122.168 258.83H123.103L124.628 262.82L126.143 258.83H127.048L124.868 264.39C124.734 264.717 124.584 264.972 124.418 265.155C124.254 265.338 124.071 265.467 123.868 265.54C123.668 265.613 123.449 265.65 123.213 265.65ZM128.035 264V258.83H128.925V259.58C129.068 259.353 129.265 259.155 129.515 258.985C129.765 258.815 130.09 258.73 130.49 258.73C130.676 258.73 130.866 258.762 131.06 258.825C131.256 258.888 131.436 258.983 131.6 259.11C131.763 259.237 131.89 259.392 131.98 259.575C132.14 259.322 132.356 259.118 132.63 258.965C132.903 258.808 133.211 258.73 133.555 258.73C133.735 258.73 133.923 258.758 134.12 258.815C134.316 258.868 134.498 258.965 134.665 259.105C134.835 259.242 134.973 259.433 135.08 259.68C135.186 259.923 135.24 260.237 135.24 260.62V264H134.31V260.71C134.31 260.397 134.26 260.155 134.16 259.985C134.06 259.812 133.928 259.69 133.765 259.62C133.605 259.55 133.433 259.515 133.25 259.515C133.09 259.515 132.92 259.547 132.74 259.61C132.56 259.673 132.406 259.78 132.28 259.93C132.153 260.08 132.09 260.285 132.09 260.545V264H131.17V260.44C131.17 260.237 131.115 260.067 131.005 259.93C130.898 259.793 130.763 259.69 130.6 259.62C130.44 259.55 130.28 259.515 130.12 259.515C129.943 259.515 129.765 259.55 129.585 259.62C129.408 259.69 129.258 259.802 129.135 259.955C129.015 260.105 128.955 260.302 128.955 260.545V264H128.035ZM137.347 261.63C137.347 261.957 137.4 262.253 137.507 262.52C137.617 262.783 137.782 262.993 138.002 263.15C138.225 263.307 138.504 263.385 138.837 263.385C139.167 263.385 139.45 263.308 139.687 263.155C139.927 263.002 140.08 262.78 140.147 262.49H141.022C140.959 262.84 140.819 263.135 140.602 263.375C140.385 263.615 140.124 263.797 139.817 263.92C139.51 264.04 139.19 264.1 138.857 264.1C138.374 264.1 137.949 263.995 137.582 263.785C137.215 263.575 136.929 263.273 136.722 262.88C136.515 262.487 136.412 262.015 136.412 261.465C136.412 260.922 136.505 260.445 136.692 260.035C136.879 259.625 137.149 259.305 137.502 259.075C137.859 258.845 138.287 258.73 138.787 258.73C139.274 258.73 139.685 258.835 140.022 259.045C140.359 259.255 140.614 259.552 140.787 259.935C140.964 260.315 141.052 260.767 141.052 261.29V261.63H137.347ZM137.352 261.005H140.162C140.162 260.708 140.112 260.442 140.012 260.205C139.912 259.965 139.759 259.777 139.552 259.64C139.349 259.5 139.092 259.43 138.782 259.43C138.459 259.43 138.19 259.508 137.977 259.665C137.767 259.818 137.609 260.017 137.502 260.26C137.399 260.5 137.349 260.748 137.352 261.005ZM142.322 264V258.83H143.217V259.58C143.3 259.437 143.415 259.302 143.562 259.175C143.712 259.048 143.892 258.947 144.102 258.87C144.315 258.793 144.56 258.755 144.837 258.755C145.163 258.755 145.463 258.82 145.737 258.95C146.013 259.08 146.233 259.283 146.397 259.56C146.563 259.833 146.647 260.187 146.647 260.62V264H145.722V260.71C145.722 260.307 145.615 260.008 145.402 259.815C145.192 259.618 144.918 259.52 144.582 259.52C144.348 259.52 144.13 259.558 143.927 259.635C143.723 259.708 143.558 259.822 143.432 259.975C143.305 260.125 143.242 260.315 143.242 260.545V264H142.322ZM150.476 259.505H149.311V262.72C149.311 262.903 149.329 263.038 149.366 263.125C149.406 263.208 149.471 263.262 149.561 263.285C149.654 263.308 149.781 263.32 149.941 263.32H150.506V263.94C150.442 263.963 150.346 263.983 150.216 264C150.089 264.017 149.931 264.025 149.741 264.025C149.384 264.025 149.107 263.977 148.911 263.88C148.714 263.783 148.576 263.64 148.496 263.45C148.419 263.26 148.381 263.027 148.381 262.75V259.505H147.541V258.83H148.406L148.631 257.325H149.311V258.825H150.476V259.505ZM154.109 264V256.57H155.009V259.59C155.095 259.447 155.212 259.313 155.359 259.19C155.505 259.063 155.684 258.962 155.894 258.885C156.104 258.805 156.347 258.765 156.624 258.765C156.96 258.765 157.265 258.828 157.539 258.955C157.812 259.078 158.029 259.255 158.189 259.485C158.349 259.715 158.429 259.988 158.429 260.305V264H157.504V260.49C157.504 260.18 157.397 259.942 157.184 259.775C156.974 259.605 156.699 259.52 156.359 259.52C156.129 259.52 155.912 259.558 155.709 259.635C155.505 259.708 155.34 259.822 155.214 259.975C155.09 260.125 155.029 260.317 155.029 260.55V264H154.109ZM161.281 264.1C160.948 264.1 160.653 264.042 160.396 263.925C160.139 263.805 159.938 263.633 159.791 263.41C159.648 263.187 159.576 262.917 159.576 262.6C159.576 262.027 159.776 261.6 160.176 261.32C160.576 261.04 161.218 260.89 162.101 260.87L163.026 260.845V260.44C163.026 260.123 162.931 259.873 162.741 259.69C162.551 259.503 162.256 259.41 161.856 259.41C161.559 259.413 161.298 259.483 161.071 259.62C160.848 259.757 160.703 259.98 160.636 260.29H159.821C159.841 259.953 159.936 259.67 160.106 259.44C160.276 259.207 160.513 259.03 160.816 258.91C161.123 258.79 161.484 258.73 161.901 258.73C162.351 258.73 162.724 258.793 163.021 258.92C163.321 259.047 163.544 259.233 163.691 259.48C163.841 259.727 163.916 260.03 163.916 260.39V264H163.126L163.061 263.03C162.861 263.433 162.606 263.713 162.296 263.87C161.989 264.023 161.651 264.1 161.281 264.1ZM161.561 263.435C161.734 263.435 161.906 263.403 162.076 263.34C162.249 263.277 162.408 263.192 162.551 263.085C162.694 262.975 162.808 262.853 162.891 262.72C162.978 262.583 163.023 262.443 163.026 262.3V261.415L162.256 261.43C161.863 261.437 161.533 261.477 161.266 261.55C161.003 261.623 160.804 261.738 160.671 261.895C160.541 262.052 160.476 262.257 160.476 262.51C160.476 262.8 160.576 263.027 160.776 263.19C160.979 263.353 161.241 263.435 161.561 263.435ZM167.252 264.1C166.892 264.1 166.557 264.045 166.247 263.935C165.941 263.822 165.686 263.647 165.482 263.41C165.279 263.17 165.151 262.865 165.097 262.495H165.937C165.984 262.698 166.067 262.868 166.187 263.005C166.311 263.138 166.464 263.24 166.647 263.31C166.831 263.377 167.031 263.41 167.247 263.41C167.594 263.41 167.874 263.345 168.087 263.215C168.301 263.085 168.407 262.885 168.407 262.615C168.407 262.425 168.351 262.273 168.237 262.16C168.127 262.043 167.956 261.958 167.722 261.905L166.652 261.64C166.236 261.54 165.902 261.383 165.652 261.17C165.402 260.957 165.277 260.658 165.277 260.275C165.274 259.972 165.346 259.705 165.492 259.475C165.639 259.245 165.859 259.063 166.152 258.93C166.446 258.797 166.811 258.73 167.247 258.73C167.807 258.73 168.259 258.857 168.602 259.11C168.949 259.36 169.129 259.728 169.142 260.215H168.327C168.294 259.968 168.182 259.773 167.992 259.63C167.806 259.483 167.554 259.41 167.237 259.41C166.907 259.41 166.639 259.477 166.432 259.61C166.226 259.74 166.122 259.943 166.122 260.22C166.122 260.403 166.196 260.548 166.342 260.655C166.489 260.758 166.706 260.845 166.992 260.915L168.027 261.175C168.267 261.238 168.464 261.322 168.617 261.425C168.774 261.528 168.897 261.643 168.987 261.77C169.081 261.897 169.146 262.03 169.182 262.17C169.222 262.307 169.242 262.438 169.242 262.565C169.242 262.882 169.162 263.155 169.002 263.385C168.846 263.612 168.619 263.788 168.322 263.915C168.029 264.038 167.672 264.1 167.252 264.1ZM175.355 264.1C175.052 264.1 174.795 264.06 174.585 263.98C174.378 263.9 174.208 263.798 174.075 263.675C173.942 263.548 173.838 263.42 173.765 263.29C173.692 263.157 173.638 263.04 173.605 262.94L173.505 264H172.8V256.57H173.73V259.65C173.773 259.563 173.838 259.468 173.925 259.365C174.015 259.262 174.13 259.162 174.27 259.065C174.41 258.968 174.575 258.888 174.765 258.825C174.958 258.762 175.178 258.73 175.425 258.73C176.072 258.73 176.585 258.955 176.965 259.405C177.348 259.855 177.54 260.518 177.54 261.395C177.54 261.938 177.458 262.413 177.295 262.82C177.132 263.223 176.888 263.538 176.565 263.765C176.242 263.988 175.838 264.1 175.355 264.1ZM175.19 263.39C175.61 263.39 175.952 263.228 176.215 262.905C176.478 262.578 176.61 262.06 176.61 261.35C176.61 260.747 176.487 260.28 176.24 259.95C175.997 259.617 175.64 259.45 175.17 259.45C174.827 259.45 174.55 259.525 174.34 259.675C174.133 259.822 173.98 260.037 173.88 260.32C173.783 260.603 173.733 260.947 173.73 261.35C173.73 262.073 173.842 262.595 174.065 262.915C174.292 263.232 174.667 263.39 175.19 263.39ZM179.407 261.63C179.407 261.957 179.461 262.253 179.567 262.52C179.677 262.783 179.842 262.993 180.062 263.15C180.286 263.307 180.564 263.385 180.897 263.385C181.227 263.385 181.511 263.308 181.747 263.155C181.987 263.002 182.141 262.78 182.207 262.49H183.082C183.019 262.84 182.879 263.135 182.662 263.375C182.446 263.615 182.184 263.797 181.877 263.92C181.571 264.04 181.251 264.1 180.917 264.1C180.434 264.1 180.009 263.995 179.642 263.785C179.276 263.575 178.989 263.273 178.782 262.88C178.576 262.487 178.472 262.015 178.472 261.465C178.472 260.922 178.566 260.445 178.752 260.035C178.939 259.625 179.209 259.305 179.562 259.075C179.919 258.845 180.347 258.73 180.847 258.73C181.334 258.73 181.746 258.835 182.082 259.045C182.419 259.255 182.674 259.552 182.847 259.935C183.024 260.315 183.112 260.767 183.112 261.29V261.63H179.407ZM179.412 261.005H182.222C182.222 260.708 182.172 260.442 182.072 260.205C181.972 259.965 181.819 259.777 181.612 259.64C181.409 259.5 181.152 259.43 180.842 259.43C180.519 259.43 180.251 259.508 180.037 259.665C179.827 259.818 179.669 260.017 179.562 260.26C179.459 260.5 179.409 260.748 179.412 261.005ZM185.042 261.63C185.042 261.957 185.096 262.253 185.202 262.52C185.312 262.783 185.477 262.993 185.697 263.15C185.921 263.307 186.199 263.385 186.532 263.385C186.862 263.385 187.146 263.308 187.382 263.155C187.622 263.002 187.776 262.78 187.842 262.49H188.717C188.654 262.84 188.514 263.135 188.297 263.375C188.081 263.615 187.819 263.797 187.512 263.92C187.206 264.04 186.886 264.1 186.552 264.1C186.069 264.1 185.644 263.995 185.277 263.785C184.911 263.575 184.624 263.273 184.417 262.88C184.211 262.487 184.107 262.015 184.107 261.465C184.107 260.922 184.201 260.445 184.387 260.035C184.574 259.625 184.844 259.305 185.197 259.075C185.554 258.845 185.982 258.73 186.482 258.73C186.969 258.73 187.381 258.835 187.717 259.045C188.054 259.255 188.309 259.552 188.482 259.935C188.659 260.315 188.747 260.767 188.747 261.29V261.63H185.042ZM185.047 261.005H187.857C187.857 260.708 187.807 260.442 187.707 260.205C187.607 259.965 187.454 259.777 187.247 259.64C187.044 259.5 186.787 259.43 186.477 259.43C186.154 259.43 185.886 259.508 185.672 259.665C185.462 259.818 185.304 260.017 185.197 260.26C185.094 260.5 185.044 260.748 185.047 261.005ZM190.017 264V258.83H190.912V259.58C190.995 259.437 191.11 259.302 191.257 259.175C191.407 259.048 191.587 258.947 191.797 258.87C192.01 258.793 192.255 258.755 192.532 258.755C192.859 258.755 193.159 258.82 193.432 258.95C193.709 259.08 193.929 259.283 194.092 259.56C194.259 259.833 194.342 260.187 194.342 260.62V264H193.417V260.71C193.417 260.307 193.31 260.008 193.097 259.815C192.887 259.618 192.614 259.52 192.277 259.52C192.044 259.52 191.825 259.558 191.622 259.635C191.419 259.708 191.254 259.822 191.127 259.975C191 260.125 190.937 260.315 190.937 260.545V264H190.017ZM198.093 265.61V258.83H199.013L199.023 259.73C199.083 259.623 199.16 259.512 199.253 259.395C199.35 259.278 199.466 259.17 199.603 259.07C199.743 258.97 199.905 258.888 200.088 258.825C200.275 258.762 200.486 258.73 200.723 258.73C201.136 258.73 201.5 258.825 201.813 259.015C202.13 259.202 202.376 259.488 202.553 259.875C202.73 260.262 202.818 260.752 202.818 261.345C202.818 261.938 202.731 262.44 202.558 262.85C202.388 263.257 202.141 263.567 201.818 263.78C201.495 263.993 201.105 264.1 200.648 264.1C200.418 264.1 200.213 264.067 200.033 264C199.856 263.937 199.701 263.853 199.568 263.75C199.438 263.643 199.328 263.53 199.238 263.41C199.151 263.29 199.08 263.175 199.023 263.065V265.61H198.093ZM200.473 263.38C200.9 263.38 201.248 263.218 201.518 262.895C201.788 262.568 201.923 262.062 201.923 261.375C201.923 260.785 201.8 260.317 201.553 259.97C201.306 259.623 200.946 259.45 200.473 259.45C199.993 259.45 199.63 259.628 199.383 259.985C199.136 260.338 199.013 260.802 199.013 261.375C199.013 261.745 199.068 262.082 199.178 262.385C199.288 262.688 199.451 262.93 199.668 263.11C199.885 263.29 200.153 263.38 200.473 263.38ZM204.031 264V258.83H204.911V259.825C204.997 259.578 205.119 259.375 205.276 259.215C205.432 259.052 205.611 258.93 205.811 258.85C206.014 258.77 206.224 258.73 206.441 258.73C206.517 258.73 206.592 258.735 206.666 258.745C206.739 258.755 206.796 258.772 206.836 258.795V259.69C206.786 259.667 206.721 259.652 206.641 259.645C206.564 259.635 206.499 259.63 206.446 259.63C206.239 259.617 206.046 259.63 205.866 259.67C205.686 259.707 205.527 259.772 205.391 259.865C205.254 259.958 205.146 260.082 205.066 260.235C204.989 260.385 204.951 260.568 204.951 260.785V264H204.031ZM209.855 264.1C209.378 264.1 208.962 263.998 208.605 263.795C208.248 263.588 207.972 263.287 207.775 262.89C207.578 262.493 207.48 262.008 207.48 261.435C207.48 260.895 207.572 260.422 207.755 260.015C207.938 259.608 208.207 259.293 208.56 259.07C208.917 258.843 209.348 258.73 209.855 258.73C210.332 258.73 210.745 258.835 211.095 259.045C211.448 259.252 211.722 259.557 211.915 259.96C212.108 260.363 212.205 260.855 212.205 261.435C212.205 261.962 212.115 262.425 211.935 262.825C211.758 263.225 211.495 263.538 211.145 263.765C210.798 263.988 210.368 264.1 209.855 264.1ZM209.855 263.37C210.165 263.37 210.427 263.292 210.64 263.135C210.853 262.978 211.015 262.753 211.125 262.46C211.235 262.167 211.29 261.818 211.29 261.415C211.29 261.045 211.242 260.713 211.145 260.42C211.048 260.123 210.893 259.888 210.68 259.715C210.47 259.542 210.195 259.455 209.855 259.455C209.542 259.455 209.277 259.533 209.06 259.69C208.843 259.843 208.678 260.067 208.565 260.36C208.455 260.653 208.4 261.005 208.4 261.415C208.4 261.778 208.45 262.108 208.55 262.405C208.65 262.702 208.807 262.937 209.02 263.11C209.233 263.283 209.512 263.37 209.855 263.37ZM215.475 258.73C215.845 258.73 216.179 258.802 216.475 258.945C216.772 259.085 217.014 259.285 217.2 259.545C217.39 259.805 217.509 260.112 217.555 260.465H216.735C216.705 260.285 216.635 260.12 216.525 259.97C216.419 259.82 216.277 259.7 216.1 259.61C215.924 259.52 215.717 259.475 215.48 259.475C215.037 259.475 214.677 259.635 214.4 259.955C214.124 260.275 213.985 260.765 213.985 261.425C213.985 262.022 214.112 262.5 214.365 262.86C214.622 263.217 214.999 263.395 215.495 263.395C215.732 263.395 215.937 263.35 216.11 263.26C216.287 263.167 216.429 263.045 216.535 262.895C216.642 262.742 216.71 262.578 216.74 262.405H217.545C217.502 262.752 217.385 263.052 217.195 263.305C217.005 263.558 216.762 263.755 216.465 263.895C216.172 264.032 215.842 264.1 215.475 264.1C215.012 264.1 214.6 263.998 214.24 263.795C213.884 263.592 213.604 263.292 213.4 262.895C213.197 262.498 213.095 262.012 213.095 261.435C213.095 260.895 213.187 260.423 213.37 260.02C213.557 259.613 213.827 259.297 214.18 259.07C214.537 258.843 214.969 258.73 215.475 258.73ZM219.466 261.63C219.466 261.957 219.519 262.253 219.626 262.52C219.736 262.783 219.901 262.993 220.121 263.15C220.344 263.307 220.623 263.385 220.956 263.385C221.286 263.385 221.569 263.308 221.806 263.155C222.046 263.002 222.199 262.78 222.266 262.49H223.141C223.078 262.84 222.938 263.135 222.721 263.375C222.504 263.615 222.243 263.797 221.936 263.92C221.629 264.04 221.309 264.1 220.976 264.1C220.493 264.1 220.068 263.995 219.701 263.785C219.334 263.575 219.048 263.273 218.841 262.88C218.634 262.487 218.531 262.015 218.531 261.465C218.531 260.922 218.624 260.445 218.811 260.035C218.998 259.625 219.268 259.305 219.621 259.075C219.978 258.845 220.406 258.73 220.906 258.73C221.393 258.73 221.804 258.835 222.141 259.045C222.478 259.255 222.733 259.552 222.906 259.935C223.083 260.315 223.171 260.767 223.171 261.29V261.63H219.466ZM219.471 261.005H222.281C222.281 260.708 222.231 260.442 222.131 260.205C222.031 259.965 221.878 259.777 221.671 259.64C221.468 259.5 221.211 259.43 220.901 259.43C220.578 259.43 220.309 259.508 220.096 259.665C219.886 259.818 219.728 260.017 219.621 260.26C219.518 260.5 219.468 260.748 219.471 261.005ZM226.246 264.1C225.886 264.1 225.551 264.045 225.241 263.935C224.935 263.822 224.68 263.647 224.476 263.41C224.273 263.17 224.145 262.865 224.091 262.495H224.931C224.978 262.698 225.061 262.868 225.181 263.005C225.305 263.138 225.458 263.24 225.641 263.31C225.825 263.377 226.025 263.41 226.241 263.41C226.588 263.41 226.868 263.345 227.081 263.215C227.295 263.085 227.401 262.885 227.401 262.615C227.401 262.425 227.345 262.273 227.231 262.16C227.121 262.043 226.95 261.958 226.716 261.905L225.646 261.64C225.23 261.54 224.896 261.383 224.646 261.17C224.396 260.957 224.271 260.658 224.271 260.275C224.268 259.972 224.34 259.705 224.486 259.475C224.633 259.245 224.853 259.063 225.146 258.93C225.44 258.797 225.805 258.73 226.241 258.73C226.801 258.73 227.253 258.857 227.596 259.11C227.943 259.36 228.123 259.728 228.136 260.215H227.321C227.288 259.968 227.176 259.773 226.986 259.63C226.8 259.483 226.548 259.41 226.231 259.41C225.901 259.41 225.633 259.477 225.426 259.61C225.22 259.74 225.116 259.943 225.116 260.22C225.116 260.403 225.19 260.548 225.336 260.655C225.483 260.758 225.7 260.845 225.986 260.915L227.021 261.175C227.261 261.238 227.458 261.322 227.611 261.425C227.768 261.528 227.891 261.643 227.981 261.77C228.075 261.897 228.14 262.03 228.176 262.17C228.216 262.307 228.236 262.438 228.236 262.565C228.236 262.882 228.156 263.155 227.996 263.385C227.84 263.612 227.613 263.788 227.316 263.915C227.023 264.038 226.666 264.1 226.246 264.1ZM231.286 264.1C230.926 264.1 230.591 264.045 230.281 263.935C229.974 263.822 229.719 263.647 229.516 263.41C229.312 263.17 229.184 262.865 229.131 262.495H229.971C230.017 262.698 230.101 262.868 230.221 263.005C230.344 263.138 230.497 263.24 230.681 263.31C230.864 263.377 231.064 263.41 231.281 263.41C231.627 263.41 231.907 263.345 232.121 263.215C232.334 263.085 232.441 262.885 232.441 262.615C232.441 262.425 232.384 262.273 232.271 262.16C232.161 262.043 231.989 261.958 231.756 261.905L230.686 261.64C230.269 261.54 229.936 261.383 229.686 261.17C229.436 260.957 229.311 260.658 229.311 260.275C229.307 259.972 229.379 259.705 229.526 259.475C229.672 259.245 229.892 259.063 230.186 258.93C230.479 258.797 230.844 258.73 231.281 258.73C231.841 258.73 232.292 258.857 232.636 259.11C232.982 259.36 233.162 259.728 233.176 260.215H232.361C232.327 259.968 232.216 259.773 232.026 259.63C231.839 259.483 231.587 259.41 231.271 259.41C230.941 259.41 230.672 259.477 230.466 259.61C230.259 259.74 230.156 259.943 230.156 260.22C230.156 260.403 230.229 260.548 230.376 260.655C230.522 260.758 230.739 260.845 231.026 260.915L232.061 261.175C232.301 261.238 232.497 261.322 232.651 261.425C232.807 261.528 232.931 261.643 233.021 261.77C233.114 261.897 233.179 262.03 233.216 262.17C233.256 262.307 233.276 262.438 233.276 262.565C233.276 262.882 233.196 263.155 233.036 263.385C232.879 263.612 232.652 263.788 232.356 263.915C232.062 264.038 231.706 264.1 231.286 264.1ZM235.228 261.63C235.228 261.957 235.281 262.253 235.388 262.52C235.498 262.783 235.663 262.993 235.883 263.15C236.106 263.307 236.384 263.385 236.718 263.385C237.048 263.385 237.331 263.308 237.568 263.155C237.808 263.002 237.961 262.78 238.028 262.49H238.903C238.839 262.84 238.699 263.135 238.483 263.375C238.266 263.615 238.004 263.797 237.698 263.92C237.391 264.04 237.071 264.1 236.738 264.1C236.254 264.1 235.829 263.995 235.463 263.785C235.096 263.575 234.809 263.273 234.603 262.88C234.396 262.487 234.293 262.015 234.293 261.465C234.293 260.922 234.386 260.445 234.573 260.035C234.759 259.625 235.029 259.305 235.383 259.075C235.739 258.845 236.168 258.73 236.668 258.73C237.154 258.73 237.566 258.835 237.903 259.045C238.239 259.255 238.494 259.552 238.668 259.935C238.844 260.315 238.933 260.767 238.933 261.29V261.63H235.228ZM235.233 261.005H238.043C238.043 260.708 237.993 260.442 237.893 260.205C237.793 259.965 237.639 259.777 237.433 259.64C237.229 259.5 236.973 259.43 236.663 259.43C236.339 259.43 236.071 259.508 235.858 259.665C235.648 259.818 235.489 260.017 235.383 260.26C235.279 260.5 235.229 260.748 235.233 261.005ZM242.068 264.1C241.398 264.1 240.866 263.87 240.473 263.41C240.079 262.95 239.883 262.278 239.883 261.395C239.883 260.858 239.961 260.39 240.118 259.99C240.278 259.59 240.514 259.28 240.828 259.06C241.141 258.84 241.531 258.73 241.998 258.73C242.244 258.73 242.463 258.762 242.653 258.825C242.846 258.888 243.013 258.968 243.153 259.065C243.293 259.162 243.406 259.262 243.493 259.365C243.583 259.468 243.649 259.563 243.693 259.65V256.57H244.623V264H243.918L243.818 262.94C243.784 263.04 243.731 263.157 243.658 263.29C243.584 263.42 243.481 263.548 243.348 263.675C243.214 263.798 243.043 263.9 242.833 263.98C242.626 264.06 242.371 264.1 242.068 264.1ZM242.233 263.39C242.756 263.39 243.129 263.232 243.353 262.915C243.579 262.595 243.693 262.073 243.693 261.35C243.689 260.947 243.638 260.603 243.538 260.32C243.441 260.037 243.288 259.822 243.078 259.675C242.871 259.525 242.596 259.45 242.253 259.45C241.826 259.45 241.479 259.602 241.213 259.905C240.946 260.208 240.813 260.69 240.813 261.35C240.813 261.997 240.933 262.498 241.173 262.855C241.416 263.212 241.769 263.39 242.233 263.39ZM245.935 264V262.82H247.035V264H245.935ZM250.117 257.62V256.77H255.587V257.62H253.382V264H252.452V257.62H250.117ZM256.589 264V256.57H257.489V259.59C257.576 259.447 257.693 259.313 257.839 259.19C257.986 259.063 258.164 258.962 258.374 258.885C258.584 258.805 258.828 258.765 259.104 258.765C259.441 258.765 259.746 258.828 260.019 258.955C260.293 259.078 260.509 259.255 260.669 259.485C260.829 259.715 260.909 259.988 260.909 260.305V264H259.984V260.49C259.984 260.18 259.878 259.942 259.664 259.775C259.454 259.605 259.179 259.52 258.839 259.52C258.609 259.52 258.393 259.558 258.189 259.635C257.986 259.708 257.821 259.822 257.694 259.975C257.571 260.125 257.509 260.317 257.509 260.55V264H256.589ZM263.011 261.63C263.011 261.957 263.064 262.253 263.171 262.52C263.281 262.783 263.446 262.993 263.666 263.15C263.889 263.307 264.168 263.385 264.501 263.385C264.831 263.385 265.114 263.308 265.351 263.155C265.591 263.002 265.744 262.78 265.811 262.49H266.686C266.623 262.84 266.483 263.135 266.266 263.375C266.049 263.615 265.788 263.797 265.481 263.92C265.174 264.04 264.854 264.1 264.521 264.1C264.038 264.1 263.613 263.995 263.246 263.785C262.879 263.575 262.593 263.273 262.386 262.88C262.179 262.487 262.076 262.015 262.076 261.465C262.076 260.922 262.169 260.445 262.356 260.035C262.543 259.625 262.813 259.305 263.166 259.075C263.523 258.845 263.951 258.73 264.451 258.73C264.938 258.73 265.349 258.835 265.686 259.045C266.023 259.255 266.278 259.552 266.451 259.935C266.628 260.315 266.716 260.767 266.716 261.29V261.63H263.011ZM263.016 261.005H265.826C265.826 260.708 265.776 260.442 265.676 260.205C265.576 259.965 265.423 259.777 265.216 259.64C265.013 259.5 264.756 259.43 264.446 259.43C264.123 259.43 263.854 259.508 263.641 259.665C263.431 259.818 263.273 260.017 263.166 260.26C263.063 260.5 263.013 260.748 263.016 261.005ZM94.46 273.505H93.295V276.72C93.295 276.903 93.3133 277.038 93.35 277.125C93.39 277.208 93.455 277.262 93.545 277.285C93.6383 277.308 93.765 277.32 93.925 277.32H94.49V277.94C94.4267 277.963 94.33 277.983 94.2 278C94.0733 278.017 93.915 278.025 93.725 278.025C93.3683 278.025 93.0917 277.977 92.895 277.88C92.6983 277.783 92.56 277.64 92.48 277.45C92.4033 277.26 92.365 277.027 92.365 276.75V273.505H91.525V272.83H92.39L92.615 271.325H93.295V272.825H94.46V273.505ZM97.7067 278.1C97.2301 278.1 96.8134 277.998 96.4567 277.795C96.1001 277.588 95.8234 277.287 95.6267 276.89C95.4301 276.493 95.3317 276.008 95.3317 275.435C95.3317 274.895 95.4234 274.422 95.6067 274.015C95.7901 273.608 96.0584 273.293 96.4117 273.07C96.7684 272.843 97.2001 272.73 97.7067 272.73C98.1834 272.73 98.5967 272.835 98.9467 273.045C99.3001 273.252 99.5734 273.557 99.7667 273.96C99.9601 274.363 100.057 274.855 100.057 275.435C100.057 275.962 99.9667 276.425 99.7867 276.825C99.6101 277.225 99.3467 277.538 98.9967 277.765C98.6501 277.988 98.2201 278.1 97.7067 278.1ZM97.7067 277.37C98.0167 277.37 98.2784 277.292 98.4917 277.135C98.7051 276.978 98.8667 276.753 98.9767 276.46C99.0867 276.167 99.1417 275.818 99.1417 275.415C99.1417 275.045 99.0934 274.713 98.9967 274.42C98.9001 274.123 98.7451 273.888 98.5317 273.715C98.3217 273.542 98.0467 273.455 97.7067 273.455C97.3934 273.455 97.1284 273.533 96.9117 273.69C96.6951 273.843 96.5301 274.067 96.4167 274.36C96.3067 274.653 96.2517 275.005 96.2517 275.415C96.2517 275.778 96.3017 276.108 96.4017 276.405C96.5017 276.702 96.6584 276.937 96.8717 277.11C97.0851 277.283 97.3634 277.37 97.7067 277.37ZM103.728 273.505H102.563V276.72C102.563 276.903 102.581 277.038 102.618 277.125C102.658 277.208 102.723 277.262 102.813 277.285C102.906 277.308 103.033 277.32 103.193 277.32H103.758V277.94C103.694 277.963 103.598 277.983 103.468 278C103.341 278.017 103.183 278.025 102.993 278.025C102.636 278.025 102.359 277.977 102.163 277.88C101.966 277.783 101.828 277.64 101.748 277.45C101.671 277.26 101.633 277.027 101.633 276.75V273.505H100.793V272.83H101.658L101.883 271.325H102.563V272.825H103.728V273.505ZM106.457 278.1C106.123 278.1 105.828 278.042 105.572 277.925C105.315 277.805 105.113 277.633 104.967 277.41C104.823 277.187 104.752 276.917 104.752 276.6C104.752 276.027 104.952 275.6 105.352 275.32C105.752 275.04 106.393 274.89 107.277 274.87L108.202 274.845V274.44C108.202 274.123 108.107 273.873 107.917 273.69C107.727 273.503 107.432 273.41 107.032 273.41C106.735 273.413 106.473 273.483 106.247 273.62C106.023 273.757 105.878 273.98 105.812 274.29H104.997C105.017 273.953 105.112 273.67 105.282 273.44C105.452 273.207 105.688 273.03 105.992 272.91C106.298 272.79 106.66 272.73 107.077 272.73C107.527 272.73 107.9 272.793 108.197 272.92C108.497 273.047 108.72 273.233 108.867 273.48C109.017 273.727 109.092 274.03 109.092 274.39V278H108.302L108.237 277.03C108.037 277.433 107.782 277.713 107.472 277.87C107.165 278.023 106.827 278.1 106.457 278.1ZM106.737 277.435C106.91 277.435 107.082 277.403 107.252 277.34C107.425 277.277 107.583 277.192 107.727 277.085C107.87 276.975 107.983 276.853 108.067 276.72C108.153 276.583 108.198 276.443 108.202 276.3V275.415L107.432 275.43C107.038 275.437 106.708 275.477 106.442 275.55C106.178 275.623 105.98 275.738 105.847 275.895C105.717 276.052 105.652 276.257 105.652 276.51C105.652 276.8 105.752 277.027 105.952 277.19C106.155 277.353 106.417 277.435 106.737 277.435ZM111.976 278.065C111.696 278.065 111.47 278.027 111.296 277.95C111.126 277.873 110.995 277.77 110.901 277.64C110.811 277.51 110.75 277.362 110.716 277.195C110.686 277.025 110.671 276.85 110.671 276.67V270.57H111.581V276.58C111.581 276.84 111.631 277.035 111.731 277.165C111.835 277.295 111.978 277.367 112.161 277.38L112.441 277.385V277.985C112.365 278.008 112.285 278.027 112.201 278.04C112.118 278.057 112.043 278.065 111.976 278.065ZM117.384 278.1C117.051 278.1 116.756 278.042 116.499 277.925C116.243 277.805 116.041 277.633 115.894 277.41C115.751 277.187 115.679 276.917 115.679 276.6C115.679 276.027 115.879 275.6 116.279 275.32C116.679 275.04 117.321 274.89 118.204 274.87L119.129 274.845V274.44C119.129 274.123 119.034 273.873 118.844 273.69C118.654 273.503 118.359 273.41 117.959 273.41C117.663 273.413 117.401 273.483 117.174 273.62C116.951 273.757 116.806 273.98 116.739 274.29H115.924C115.944 273.953 116.039 273.67 116.209 273.44C116.379 273.207 116.616 273.03 116.919 272.91C117.226 272.79 117.588 272.73 118.004 272.73C118.454 272.73 118.828 272.793 119.124 272.92C119.424 273.047 119.648 273.233 119.794 273.48C119.944 273.727 120.019 274.03 120.019 274.39V278H119.229L119.164 277.03C118.964 277.433 118.709 277.713 118.399 277.87C118.093 278.023 117.754 278.1 117.384 278.1ZM117.664 277.435C117.838 277.435 118.009 277.403 118.179 277.34C118.353 277.277 118.511 277.192 118.654 277.085C118.798 276.975 118.911 276.853 118.994 276.72C119.081 276.583 119.126 276.443 119.129 276.3V275.415L118.359 275.43C117.966 275.437 117.636 275.477 117.369 275.55C117.106 275.623 116.908 275.738 116.774 275.895C116.644 276.052 116.579 276.257 116.579 276.51C116.579 276.8 116.679 277.027 116.879 277.19C117.083 277.353 117.344 277.435 117.664 277.435ZM121.599 278V272.83H122.489V273.58C122.632 273.353 122.829 273.155 123.079 272.985C123.329 272.815 123.654 272.73 124.054 272.73C124.241 272.73 124.431 272.762 124.624 272.825C124.821 272.888 125.001 272.983 125.164 273.11C125.327 273.237 125.454 273.392 125.544 273.575C125.704 273.322 125.921 273.118 126.194 272.965C126.467 272.808 126.776 272.73 127.119 272.73C127.299 272.73 127.487 272.758 127.684 272.815C127.881 272.868 128.062 272.965 128.229 273.105C128.399 273.242 128.537 273.433 128.644 273.68C128.751 273.923 128.804 274.237 128.804 274.62V278H127.874V274.71C127.874 274.397 127.824 274.155 127.724 273.985C127.624 273.812 127.492 273.69 127.329 273.62C127.169 273.55 126.997 273.515 126.814 273.515C126.654 273.515 126.484 273.547 126.304 273.61C126.124 273.673 125.971 273.78 125.844 273.93C125.717 274.08 125.654 274.285 125.654 274.545V278H124.734V274.44C124.734 274.237 124.679 274.067 124.569 273.93C124.462 273.793 124.327 273.69 124.164 273.62C124.004 273.55 123.844 273.515 123.684 273.515C123.507 273.515 123.329 273.55 123.149 273.62C122.972 273.69 122.822 273.802 122.699 273.955C122.579 274.105 122.519 274.302 122.519 274.545V278H121.599ZM132.306 278.1C131.83 278.1 131.413 277.998 131.056 277.795C130.7 277.588 130.423 277.287 130.226 276.89C130.03 276.493 129.931 276.008 129.931 275.435C129.931 274.895 130.023 274.422 130.206 274.015C130.39 273.608 130.658 273.293 131.011 273.07C131.368 272.843 131.8 272.73 132.306 272.73C132.783 272.73 133.196 272.835 133.546 273.045C133.9 273.252 134.173 273.557 134.366 273.96C134.56 274.363 134.656 274.855 134.656 275.435C134.656 275.962 134.566 276.425 134.386 276.825C134.21 277.225 133.946 277.538 133.596 277.765C133.25 277.988 132.82 278.1 132.306 278.1ZM132.306 277.37C132.616 277.37 132.878 277.292 133.091 277.135C133.305 276.978 133.466 276.753 133.576 276.46C133.686 276.167 133.741 275.818 133.741 275.415C133.741 275.045 133.693 274.713 133.596 274.42C133.5 274.123 133.345 273.888 133.131 273.715C132.921 273.542 132.646 273.455 132.306 273.455C131.993 273.455 131.728 273.533 131.511 273.69C131.295 273.843 131.13 274.067 131.016 274.36C130.906 274.653 130.851 275.005 130.851 275.415C130.851 275.778 130.901 276.108 131.001 276.405C131.101 276.702 131.258 276.937 131.471 277.11C131.685 277.283 131.963 277.37 132.306 277.37ZM137.688 278.1C137.418 278.097 137.163 278.058 136.923 277.985C136.687 277.908 136.477 277.797 136.293 277.65C136.11 277.503 135.965 277.322 135.858 277.105C135.755 276.885 135.703 276.63 135.703 276.34V272.83H136.628V276.245C136.628 276.582 136.732 276.855 136.938 277.065C137.148 277.275 137.463 277.38 137.883 277.38C138.263 277.38 138.568 277.282 138.798 277.085C139.032 276.885 139.148 276.588 139.148 276.195V272.83H140.068V278H139.333L139.238 277.01C139.175 277.27 139.067 277.48 138.913 277.64C138.763 277.8 138.582 277.918 138.368 277.995C138.158 278.068 137.932 278.103 137.688 278.1ZM141.57 278V272.83H142.465V273.58C142.548 273.437 142.663 273.302 142.81 273.175C142.96 273.048 143.14 272.947 143.35 272.87C143.563 272.793 143.808 272.755 144.085 272.755C144.411 272.755 144.711 272.82 144.985 272.95C145.261 273.08 145.481 273.283 145.645 273.56C145.811 273.833 145.895 274.187 145.895 274.62V278H144.97V274.71C144.97 274.307 144.863 274.008 144.65 273.815C144.44 273.618 144.166 273.52 143.83 273.52C143.596 273.52 143.378 273.558 143.175 273.635C142.971 273.708 142.806 273.822 142.68 273.975C142.553 274.125 142.49 274.315 142.49 274.545V278H141.57ZM149.724 273.505H148.559V276.72C148.559 276.903 148.577 277.038 148.614 277.125C148.654 277.208 148.719 277.262 148.809 277.285C148.902 277.308 149.029 277.32 149.189 277.32H149.754V277.94C149.69 277.963 149.594 277.983 149.464 278C149.337 278.017 149.179 278.025 148.989 278.025C148.632 278.025 148.355 277.977 148.159 277.88C147.962 277.783 147.824 277.64 147.744 277.45C147.667 277.26 147.629 277.027 147.629 276.75V273.505H146.789V272.83H147.654L147.879 271.325H148.559V272.825H149.724V273.505ZM155.095 278.1C154.425 278.1 153.893 277.87 153.5 277.41C153.107 276.95 152.91 276.278 152.91 275.395C152.91 274.858 152.988 274.39 153.145 273.99C153.305 273.59 153.542 273.28 153.855 273.06C154.168 272.84 154.558 272.73 155.025 272.73C155.272 272.73 155.49 272.762 155.68 272.825C155.873 272.888 156.04 272.968 156.18 273.065C156.32 273.162 156.433 273.262 156.52 273.365C156.61 273.468 156.677 273.563 156.72 273.65V270.57H157.65V278H156.945L156.845 276.94C156.812 277.04 156.758 277.157 156.685 277.29C156.612 277.42 156.508 277.548 156.375 277.675C156.242 277.798 156.07 277.9 155.86 277.98C155.653 278.06 155.398 278.1 155.095 278.1ZM155.26 277.39C155.783 277.39 156.157 277.232 156.38 276.915C156.607 276.595 156.72 276.073 156.72 275.35C156.717 274.947 156.665 274.603 156.565 274.32C156.468 274.037 156.315 273.822 156.105 273.675C155.898 273.525 155.623 273.45 155.28 273.45C154.853 273.45 154.507 273.602 154.24 273.905C153.973 274.208 153.84 274.69 153.84 275.35C153.84 275.997 153.96 276.498 154.2 276.855C154.443 277.212 154.797 277.39 155.26 277.39ZM159.837 275.63C159.837 275.957 159.89 276.253 159.997 276.52C160.107 276.783 160.272 276.993 160.492 277.15C160.715 277.307 160.994 277.385 161.327 277.385C161.657 277.385 161.94 277.308 162.177 277.155C162.417 277.002 162.57 276.78 162.637 276.49H163.512C163.449 276.84 163.309 277.135 163.092 277.375C162.875 277.615 162.614 277.797 162.307 277.92C162 278.04 161.68 278.1 161.347 278.1C160.864 278.1 160.439 277.995 160.072 277.785C159.705 277.575 159.419 277.273 159.212 276.88C159.005 276.487 158.902 276.015 158.902 275.465C158.902 274.922 158.995 274.445 159.182 274.035C159.369 273.625 159.639 273.305 159.992 273.075C160.349 272.845 160.777 272.73 161.277 272.73C161.764 272.73 162.175 272.835 162.512 273.045C162.849 273.255 163.104 273.552 163.277 273.935C163.454 274.315 163.542 274.767 163.542 275.29V275.63H159.837ZM159.842 275.005H162.652C162.652 274.708 162.602 274.442 162.502 274.205C162.402 273.965 162.249 273.777 162.042 273.64C161.839 273.5 161.582 273.43 161.272 273.43C160.949 273.43 160.68 273.508 160.467 273.665C160.257 273.818 160.099 274.017 159.992 274.26C159.889 274.5 159.839 274.748 159.842 275.005ZM166.677 278.1C166.007 278.1 165.475 277.87 165.082 277.41C164.689 276.95 164.492 276.278 164.492 275.395C164.492 274.858 164.57 274.39 164.727 273.99C164.887 273.59 165.124 273.28 165.437 273.06C165.75 272.84 166.14 272.73 166.607 272.73C166.854 272.73 167.072 272.762 167.262 272.825C167.455 272.888 167.622 272.968 167.762 273.065C167.902 273.162 168.015 273.262 168.102 273.365C168.192 273.468 168.259 273.563 168.302 273.65V270.57H169.232V278H168.527L168.427 276.94C168.394 277.04 168.34 277.157 168.267 277.29C168.194 277.42 168.09 277.548 167.957 277.675C167.824 277.798 167.652 277.9 167.442 277.98C167.235 278.06 166.98 278.1 166.677 278.1ZM166.842 277.39C167.365 277.39 167.739 277.232 167.962 276.915C168.189 276.595 168.302 276.073 168.302 275.35C168.299 274.947 168.247 274.603 168.147 274.32C168.05 274.037 167.897 273.822 167.687 273.675C167.48 273.525 167.205 273.45 166.862 273.45C166.435 273.45 166.089 273.602 165.822 273.905C165.555 274.208 165.422 274.69 165.422 275.35C165.422 275.997 165.542 276.498 165.782 276.855C166.025 277.212 166.379 277.39 166.842 277.39ZM172.659 278.1C172.389 278.097 172.134 278.058 171.894 277.985C171.657 277.908 171.447 277.797 171.264 277.65C171.081 277.503 170.936 277.322 170.829 277.105C170.726 276.885 170.674 276.63 170.674 276.34V272.83H171.599V276.245C171.599 276.582 171.702 276.855 171.909 277.065C172.119 277.275 172.434 277.38 172.854 277.38C173.234 277.38 173.539 277.282 173.769 277.085C174.002 276.885 174.119 276.588 174.119 276.195V272.83H175.039V278H174.304L174.209 277.01C174.146 277.27 174.037 277.48 173.884 277.64C173.734 277.8 173.552 277.918 173.339 277.995C173.129 278.068 172.902 278.103 172.659 278.1ZM178.542 272.73C178.912 272.73 179.245 272.802 179.542 272.945C179.838 273.085 180.08 273.285 180.267 273.545C180.457 273.805 180.575 274.112 180.622 274.465H179.802C179.772 274.285 179.702 274.12 179.592 273.97C179.485 273.82 179.343 273.7 179.167 273.61C178.99 273.52 178.783 273.475 178.547 273.475C178.103 273.475 177.743 273.635 177.467 273.955C177.19 274.275 177.052 274.765 177.052 275.425C177.052 276.022 177.178 276.5 177.432 276.86C177.688 277.217 178.065 277.395 178.562 277.395C178.798 277.395 179.003 277.35 179.177 277.26C179.353 277.167 179.495 277.045 179.602 276.895C179.708 276.742 179.777 276.578 179.807 276.405H180.612C180.568 276.752 180.452 277.052 180.262 277.305C180.072 277.558 179.828 277.755 179.532 277.895C179.238 278.032 178.908 278.1 178.542 278.1C178.078 278.1 177.667 277.998 177.307 277.795C176.95 277.592 176.67 277.292 176.467 276.895C176.263 276.498 176.162 276.012 176.162 275.435C176.162 274.895 176.253 274.423 176.437 274.02C176.623 273.613 176.893 273.297 177.247 273.07C177.603 272.843 178.035 272.73 178.542 272.73ZM184.333 273.505H183.168V276.72C183.168 276.903 183.186 277.038 183.223 277.125C183.263 277.208 183.328 277.262 183.418 277.285C183.511 277.308 183.638 277.32 183.798 277.32H184.363V277.94C184.3 277.963 184.203 277.983 184.073 278C183.946 278.017 183.788 278.025 183.598 278.025C183.241 278.025 182.965 277.977 182.768 277.88C182.571 277.783 182.433 277.64 182.353 277.45C182.276 277.26 182.238 277.027 182.238 276.75V273.505H181.398V272.83H182.263L182.488 271.325H183.168V272.825H184.333V273.505ZM186.185 275.63C186.185 275.957 186.238 276.253 186.345 276.52C186.455 276.783 186.62 276.993 186.84 277.15C187.063 277.307 187.341 277.385 187.675 277.385C188.005 277.385 188.288 277.308 188.525 277.155C188.765 277.002 188.918 276.78 188.985 276.49H189.86C189.796 276.84 189.656 277.135 189.44 277.375C189.223 277.615 188.961 277.797 188.655 277.92C188.348 278.04 188.028 278.1 187.695 278.1C187.211 278.1 186.786 277.995 186.42 277.785C186.053 277.575 185.766 277.273 185.56 276.88C185.353 276.487 185.25 276.015 185.25 275.465C185.25 274.922 185.343 274.445 185.53 274.035C185.716 273.625 185.986 273.305 186.34 273.075C186.696 272.845 187.125 272.73 187.625 272.73C188.111 272.73 188.523 272.835 188.86 273.045C189.196 273.255 189.451 273.552 189.625 273.935C189.801 274.315 189.89 274.767 189.89 275.29V275.63H186.185ZM186.19 275.005H189C189 274.708 188.95 274.442 188.85 274.205C188.75 273.965 188.596 273.777 188.39 273.64C188.186 273.5 187.93 273.43 187.62 273.43C187.296 273.43 187.028 273.508 186.815 273.665C186.605 273.818 186.446 274.017 186.34 274.26C186.236 274.5 186.186 274.748 186.19 275.005ZM193.025 278.1C192.355 278.1 191.823 277.87 191.43 277.41C191.036 276.95 190.84 276.278 190.84 275.395C190.84 274.858 190.918 274.39 191.075 273.99C191.235 273.59 191.471 273.28 191.785 273.06C192.098 272.84 192.488 272.73 192.955 272.73C193.201 272.73 193.42 272.762 193.61 272.825C193.803 272.888 193.97 272.968 194.11 273.065C194.25 273.162 194.363 273.262 194.45 273.365C194.54 273.468 194.606 273.563 194.65 273.65V270.57H195.58V278H194.875L194.775 276.94C194.741 277.04 194.688 277.157 194.615 277.29C194.541 277.42 194.438 277.548 194.305 277.675C194.171 277.798 194 277.9 193.79 277.98C193.583 278.06 193.328 278.1 193.025 278.1ZM193.19 277.39C193.713 277.39 194.086 277.232 194.31 276.915C194.536 276.595 194.65 276.073 194.65 275.35C194.646 274.947 194.595 274.603 194.495 274.32C194.398 274.037 194.245 273.822 194.035 273.675C193.828 273.525 193.553 273.45 193.21 273.45C192.783 273.45 192.436 273.602 192.17 273.905C191.903 274.208 191.77 274.69 191.77 275.35C191.77 275.997 191.89 276.498 192.13 276.855C192.373 277.212 192.726 277.39 193.19 277.39ZM202.331 272.83V273.505H201.076V278H200.146V273.505H199.056V272.83H200.146V272.03C200.146 271.62 200.251 271.308 200.461 271.095C200.671 270.878 200.985 270.77 201.401 270.77H202.376L202.381 271.425H201.606C201.396 271.425 201.253 271.482 201.176 271.595C201.1 271.708 201.061 271.88 201.061 272.11V272.83H202.331ZM203.474 278V272.83H204.354V273.825C204.441 273.578 204.562 273.375 204.719 273.215C204.876 273.052 205.054 272.93 205.254 272.85C205.457 272.77 205.667 272.73 205.884 272.73C205.961 272.73 206.036 272.735 206.109 272.745C206.182 272.755 206.239 272.772 206.279 272.795V273.69C206.229 273.667 206.164 273.652 206.084 273.645C206.007 273.635 205.942 273.63 205.889 273.63C205.682 273.617 205.489 273.63 205.309 273.67C205.129 273.707 204.971 273.772 204.834 273.865C204.697 273.958 204.589 274.082 204.509 274.235C204.432 274.385 204.394 274.568 204.394 274.785V278H203.474ZM209.299 278.1C208.822 278.1 208.405 277.998 208.049 277.795C207.692 277.588 207.415 277.287 207.219 276.89C207.022 276.493 206.924 276.008 206.924 275.435C206.924 274.895 207.015 274.422 207.199 274.015C207.382 273.608 207.65 273.293 208.004 273.07C208.36 272.843 208.792 272.73 209.299 272.73C209.775 272.73 210.189 272.835 210.539 273.045C210.892 273.252 211.165 273.557 211.359 273.96C211.552 274.363 211.649 274.855 211.649 275.435C211.649 275.962 211.559 276.425 211.379 276.825C211.202 277.225 210.939 277.538 210.589 277.765C210.242 277.988 209.812 278.1 209.299 278.1ZM209.299 277.37C209.609 277.37 209.87 277.292 210.084 277.135C210.297 276.978 210.459 276.753 210.569 276.46C210.679 276.167 210.734 275.818 210.734 275.415C210.734 275.045 210.685 274.713 210.589 274.42C210.492 274.123 210.337 273.888 210.124 273.715C209.914 273.542 209.639 273.455 209.299 273.455C208.985 273.455 208.72 273.533 208.504 273.69C208.287 273.843 208.122 274.067 208.009 274.36C207.899 274.653 207.844 275.005 207.844 275.415C207.844 275.778 207.894 276.108 207.994 276.405C208.094 276.702 208.25 276.937 208.464 277.11C208.677 277.283 208.955 277.37 209.299 277.37ZM212.859 278V272.83H213.749V273.58C213.892 273.353 214.089 273.155 214.339 272.985C214.589 272.815 214.914 272.73 215.314 272.73C215.5 272.73 215.69 272.762 215.884 272.825C216.08 272.888 216.26 272.983 216.424 273.11C216.587 273.237 216.714 273.392 216.804 273.575C216.964 273.322 217.18 273.118 217.454 272.965C217.727 272.808 218.035 272.73 218.379 272.73C218.559 272.73 218.747 272.758 218.944 272.815C219.14 272.868 219.322 272.965 219.489 273.105C219.659 273.242 219.797 273.433 219.904 273.68C220.01 273.923 220.064 274.237 220.064 274.62V278H219.134V274.71C219.134 274.397 219.084 274.155 218.984 273.985C218.884 273.812 218.752 273.69 218.589 273.62C218.429 273.55 218.257 273.515 218.074 273.515C217.914 273.515 217.744 273.547 217.564 273.61C217.384 273.673 217.23 273.78 217.104 273.93C216.977 274.08 216.914 274.285 216.914 274.545V278H215.994V274.44C215.994 274.237 215.939 274.067 215.829 273.93C215.722 273.793 215.587 273.69 215.424 273.62C215.264 273.55 215.104 273.515 214.944 273.515C214.767 273.515 214.589 273.55 214.409 273.62C214.232 273.69 214.082 273.802 213.959 273.955C213.839 274.105 213.779 274.302 213.779 274.545V278H212.859ZM224.267 279.65C223.964 279.65 223.756 279.628 223.642 279.585C223.529 279.542 223.472 279.52 223.472 279.52V278.92L223.997 278.93C224.191 278.937 224.351 278.923 224.477 278.89C224.604 278.857 224.706 278.812 224.782 278.755C224.859 278.698 224.917 278.635 224.957 278.565C225.001 278.495 225.036 278.428 225.062 278.365L225.242 277.875L223.222 272.83H224.157L225.682 276.82L227.197 272.83H228.102L225.922 278.39C225.789 278.717 225.639 278.972 225.472 279.155C225.309 279.338 225.126 279.467 224.922 279.54C224.722 279.613 224.504 279.65 224.267 279.65ZM230.959 278.1C230.482 278.1 230.065 277.998 229.709 277.795C229.352 277.588 229.075 277.287 228.879 276.89C228.682 276.493 228.584 276.008 228.584 275.435C228.584 274.895 228.675 274.422 228.859 274.015C229.042 273.608 229.31 273.293 229.664 273.07C230.02 272.843 230.452 272.73 230.959 272.73C231.435 272.73 231.849 272.835 232.199 273.045C232.552 273.252 232.825 273.557 233.019 273.96C233.212 274.363 233.309 274.855 233.309 275.435C233.309 275.962 233.219 276.425 233.039 276.825C232.862 277.225 232.599 277.538 232.249 277.765C231.902 277.988 231.472 278.1 230.959 278.1ZM230.959 277.37C231.269 277.37 231.53 277.292 231.744 277.135C231.957 276.978 232.119 276.753 232.229 276.46C232.339 276.167 232.394 275.818 232.394 275.415C232.394 275.045 232.345 274.713 232.249 274.42C232.152 274.123 231.997 273.888 231.784 273.715C231.574 273.542 231.299 273.455 230.959 273.455C230.645 273.455 230.38 273.533 230.164 273.69C229.947 273.843 229.782 274.067 229.669 274.36C229.559 274.653 229.504 275.005 229.504 275.415C229.504 275.778 229.554 276.108 229.654 276.405C229.754 276.702 229.91 276.937 230.124 277.11C230.337 277.283 230.615 277.37 230.959 277.37ZM236.341 278.1C236.071 278.097 235.816 278.058 235.576 277.985C235.339 277.908 235.129 277.797 234.946 277.65C234.762 277.503 234.617 277.322 234.511 277.105C234.407 276.885 234.356 276.63 234.356 276.34V272.83H235.281V276.245C235.281 276.582 235.384 276.855 235.591 277.065C235.801 277.275 236.116 277.38 236.536 277.38C236.916 277.38 237.221 277.282 237.451 277.085C237.684 276.885 237.801 276.588 237.801 276.195V272.83H238.721V278H237.986L237.891 277.01C237.827 277.27 237.719 277.48 237.566 277.64C237.416 277.8 237.234 277.918 237.021 277.995C236.811 278.068 236.584 278.103 236.341 278.1ZM240.222 278V272.83H241.102V273.825C241.189 273.578 241.31 273.375 241.467 273.215C241.624 273.052 241.802 272.93 242.002 272.85C242.205 272.77 242.415 272.73 242.632 272.73C242.709 272.73 242.784 272.735 242.857 272.745C242.93 272.755 242.987 272.772 243.027 272.795V273.69C242.977 273.667 242.912 273.652 242.832 273.645C242.755 273.635 242.69 273.63 242.637 273.63C242.43 273.617 242.237 273.63 242.057 273.67C241.877 273.707 241.719 273.772 241.582 273.865C241.445 273.958 241.337 274.082 241.257 274.235C241.18 274.385 241.142 274.568 241.142 274.785V278H240.222ZM93.195 292.1C92.8617 292.1 92.5667 292.042 92.31 291.925C92.0533 291.805 91.8517 291.633 91.705 291.41C91.5617 291.187 91.49 290.917 91.49 290.6C91.49 290.027 91.69 289.6 92.09 289.32C92.49 289.04 93.1317 288.89 94.015 288.87L94.94 288.845V288.44C94.94 288.123 94.845 287.873 94.655 287.69C94.465 287.503 94.17 287.41 93.77 287.41C93.4733 287.413 93.2117 287.483 92.985 287.62C92.7617 287.757 92.6167 287.98 92.55 288.29H91.735C91.755 287.953 91.85 287.67 92.02 287.44C92.19 287.207 92.4267 287.03 92.73 286.91C93.0367 286.79 93.3983 286.73 93.815 286.73C94.265 286.73 94.6383 286.793 94.935 286.92C95.235 287.047 95.4583 287.233 95.605 287.48C95.755 287.727 95.83 288.03 95.83 288.39V292H95.04L94.975 291.03C94.775 291.433 94.52 291.713 94.21 291.87C93.9033 292.023 93.565 292.1 93.195 292.1ZM93.475 291.435C93.6483 291.435 93.82 291.403 93.99 291.34C94.1633 291.277 94.3217 291.192 94.465 291.085C94.6083 290.975 94.7217 290.853 94.805 290.72C94.8917 290.583 94.9367 290.443 94.94 290.3V289.415L94.17 289.43C93.7767 289.437 93.4467 289.477 93.18 289.55C92.9167 289.623 92.7183 289.738 92.585 289.895C92.455 290.052 92.39 290.257 92.39 290.51C92.39 290.8 92.49 291.027 92.69 291.19C92.8933 291.353 93.155 291.435 93.475 291.435ZM99.4695 286.73C99.8395 286.73 100.173 286.802 100.47 286.945C100.766 287.085 101.008 287.285 101.195 287.545C101.385 287.805 101.503 288.112 101.55 288.465H100.73C100.7 288.285 100.63 288.12 100.52 287.97C100.413 287.82 100.271 287.7 100.095 287.61C99.9179 287.52 99.7112 287.475 99.4745 287.475C99.0312 287.475 98.6712 287.635 98.3945 287.955C98.1179 288.275 97.9795 288.765 97.9795 289.425C97.9795 290.022 98.1062 290.5 98.3595 290.86C98.6162 291.217 98.9929 291.395 99.4895 291.395C99.7262 291.395 99.9312 291.35 100.105 291.26C100.281 291.167 100.423 291.045 100.53 290.895C100.636 290.742 100.705 290.578 100.735 290.405H101.54C101.496 290.752 101.38 291.052 101.19 291.305C101 291.558 100.756 291.755 100.46 291.895C100.166 292.032 99.8362 292.1 99.4695 292.1C99.0062 292.1 98.5945 291.998 98.2345 291.795C97.8779 291.592 97.5979 291.292 97.3945 290.895C97.1912 290.498 97.0895 290.012 97.0895 289.435C97.0895 288.895 97.1812 288.423 97.3645 288.02C97.5512 287.613 97.8212 287.297 98.1745 287.07C98.5312 286.843 98.9629 286.73 99.4695 286.73ZM104.86 286.73C105.23 286.73 105.563 286.802 105.86 286.945C106.157 287.085 106.398 287.285 106.585 287.545C106.775 287.805 106.893 288.112 106.94 288.465H106.12C106.09 288.285 106.02 288.12 105.91 287.97C105.803 287.82 105.662 287.7 105.485 287.61C105.308 287.52 105.102 287.475 104.865 287.475C104.422 287.475 104.062 287.635 103.785 287.955C103.508 288.275 103.37 288.765 103.37 289.425C103.37 290.022 103.497 290.5 103.75 290.86C104.007 291.217 104.383 291.395 104.88 291.395C105.117 291.395 105.322 291.35 105.495 291.26C105.672 291.167 105.813 291.045 105.92 290.895C106.027 290.742 106.095 290.578 106.125 290.405H106.93C106.887 290.752 106.77 291.052 106.58 291.305C106.39 291.558 106.147 291.755 105.85 291.895C105.557 292.032 105.227 292.1 104.86 292.1C104.397 292.1 103.985 291.998 103.625 291.795C103.268 291.592 102.988 291.292 102.785 290.895C102.582 290.498 102.48 290.012 102.48 289.435C102.48 288.895 102.572 288.423 102.755 288.02C102.942 287.613 103.212 287.297 103.565 287.07C103.922 286.843 104.353 286.73 104.86 286.73ZM110.246 292.1C109.769 292.1 109.352 291.998 108.996 291.795C108.639 291.588 108.362 291.287 108.166 290.89C107.969 290.493 107.871 290.008 107.871 289.435C107.871 288.895 107.962 288.422 108.146 288.015C108.329 287.608 108.597 287.293 108.951 287.07C109.307 286.843 109.739 286.73 110.246 286.73C110.722 286.73 111.136 286.835 111.486 287.045C111.839 287.252 112.112 287.557 112.306 287.96C112.499 288.363 112.596 288.855 112.596 289.435C112.596 289.962 112.506 290.425 112.326 290.825C112.149 291.225 111.886 291.538 111.536 291.765C111.189 291.988 110.759 292.1 110.246 292.1ZM110.246 291.37C110.556 291.37 110.817 291.292 111.031 291.135C111.244 290.978 111.406 290.753 111.516 290.46C111.626 290.167 111.681 289.818 111.681 289.415C111.681 289.045 111.632 288.713 111.536 288.42C111.439 288.123 111.284 287.888 111.071 287.715C110.861 287.542 110.586 287.455 110.246 287.455C109.932 287.455 109.667 287.533 109.451 287.69C109.234 287.843 109.069 288.067 108.956 288.36C108.846 288.653 108.791 289.005 108.791 289.415C108.791 289.778 108.841 290.108 108.941 290.405C109.041 290.702 109.197 290.937 109.411 291.11C109.624 291.283 109.902 291.37 110.246 291.37ZM115.628 292.1C115.358 292.097 115.103 292.058 114.863 291.985C114.626 291.908 114.416 291.797 114.233 291.65C114.05 291.503 113.905 291.322 113.798 291.105C113.695 290.885 113.643 290.63 113.643 290.34V286.83H114.568V290.245C114.568 290.582 114.671 290.855 114.878 291.065C115.088 291.275 115.403 291.38 115.823 291.38C116.203 291.38 116.508 291.282 116.738 291.085C116.971 290.885 117.088 290.588 117.088 290.195V286.83H118.008V292H117.273L117.178 291.01C117.115 291.27 117.006 291.48 116.853 291.64C116.703 291.8 116.521 291.918 116.308 291.995C116.098 292.068 115.871 292.103 115.628 292.1ZM119.509 292V286.83H120.404V287.58C120.487 287.437 120.602 287.302 120.749 287.175C120.899 287.048 121.079 286.947 121.289 286.87C121.502 286.793 121.747 286.755 122.024 286.755C122.351 286.755 122.651 286.82 122.924 286.95C123.201 287.08 123.421 287.283 123.584 287.56C123.751 287.833 123.834 288.187 123.834 288.62V292H122.909V288.71C122.909 288.307 122.802 288.008 122.589 287.815C122.379 287.618 122.106 287.52 121.769 287.52C121.536 287.52 121.317 287.558 121.114 287.635C120.911 287.708 120.746 287.822 120.619 287.975C120.492 288.125 120.429 288.315 120.429 288.545V292H119.509ZM127.663 287.505H126.498V290.72C126.498 290.903 126.516 291.038 126.553 291.125C126.593 291.208 126.658 291.262 126.748 291.285C126.841 291.308 126.968 291.32 127.128 291.32H127.693V291.94C127.63 291.963 127.533 291.983 127.403 292C127.276 292.017 127.118 292.025 126.928 292.025C126.571 292.025 126.295 291.977 126.098 291.88C125.901 291.783 125.763 291.64 125.683 291.45C125.606 291.26 125.568 291.027 125.568 290.75V287.505H124.728V286.83H125.593L125.818 285.325H126.498V286.825H127.663V287.505ZM132.296 286.83V292H131.401V286.83H132.296ZM132.316 284.775V285.735H131.371V284.775H132.316ZM135.758 292.1C135.398 292.1 135.063 292.045 134.753 291.935C134.447 291.822 134.192 291.647 133.988 291.41C133.785 291.17 133.657 290.865 133.603 290.495H134.443C134.49 290.698 134.573 290.868 134.693 291.005C134.817 291.138 134.97 291.24 135.153 291.31C135.337 291.377 135.537 291.41 135.753 291.41C136.1 291.41 136.38 291.345 136.593 291.215C136.807 291.085 136.913 290.885 136.913 290.615C136.913 290.425 136.857 290.273 136.743 290.16C136.633 290.043 136.462 289.958 136.228 289.905L135.158 289.64C134.742 289.54 134.408 289.383 134.158 289.17C133.908 288.957 133.783 288.658 133.783 288.275C133.78 287.972 133.852 287.705 133.998 287.475C134.145 287.245 134.365 287.063 134.658 286.93C134.952 286.797 135.317 286.73 135.753 286.73C136.313 286.73 136.765 286.857 137.108 287.11C137.455 287.36 137.635 287.728 137.648 288.215H136.833C136.8 287.968 136.688 287.773 136.498 287.63C136.312 287.483 136.06 287.41 135.743 287.41C135.413 287.41 135.145 287.477 134.938 287.61C134.732 287.74 134.628 287.943 134.628 288.22C134.628 288.403 134.702 288.548 134.848 288.655C134.995 288.758 135.212 288.845 135.498 288.915L136.533 289.175C136.773 289.238 136.97 289.322 137.123 289.425C137.28 289.528 137.403 289.643 137.493 289.77C137.587 289.897 137.652 290.03 137.688 290.17C137.728 290.307 137.748 290.438 137.748 290.565C137.748 290.882 137.668 291.155 137.508 291.385C137.352 291.612 137.125 291.788 136.828 291.915C136.535 292.038 136.178 292.1 135.758 292.1ZM146.99 289.245C146.99 289.828 146.895 290.335 146.705 290.765C146.515 291.192 146.206 291.522 145.78 291.755C145.356 291.985 144.795 292.1 144.095 292.1C143.391 292.1 142.828 291.983 142.405 291.75C141.981 291.513 141.675 291.178 141.485 290.745C141.298 290.312 141.205 289.795 141.205 289.195V284.77H142.69V289.305C142.69 289.845 142.82 290.24 143.08 290.49C143.34 290.737 143.678 290.86 144.095 290.86C144.371 290.86 144.616 290.807 144.83 290.7C145.043 290.59 145.21 290.422 145.33 290.195C145.453 289.965 145.515 289.668 145.515 289.305V284.77H146.99V289.245ZM151.156 292.1C150.799 292.1 150.449 292.055 150.106 291.965C149.763 291.875 149.449 291.74 149.166 291.56C148.883 291.38 148.648 291.155 148.461 290.885C148.278 290.615 148.168 290.298 148.131 289.935H149.626C149.676 290.155 149.771 290.34 149.911 290.49C150.051 290.64 150.228 290.755 150.441 290.835C150.654 290.915 150.891 290.955 151.151 290.955C151.418 290.955 151.661 290.922 151.881 290.855C152.101 290.788 152.278 290.688 152.411 290.555C152.544 290.418 152.611 290.248 152.611 290.045C152.611 289.862 152.556 289.712 152.446 289.595C152.339 289.478 152.194 289.383 152.011 289.31C151.828 289.237 151.619 289.177 151.386 289.13L150.136 288.875C149.589 288.772 149.156 288.555 148.836 288.225C148.516 287.892 148.351 287.448 148.341 286.895C148.338 286.442 148.458 286.05 148.701 285.72C148.948 285.387 149.281 285.13 149.701 284.95C150.124 284.77 150.598 284.68 151.121 284.68C151.744 284.68 152.268 284.778 152.691 284.975C153.118 285.168 153.441 285.432 153.661 285.765C153.884 286.095 153.999 286.463 154.006 286.87H152.541C152.514 286.617 152.438 286.415 152.311 286.265C152.184 286.115 152.021 286.007 151.821 285.94C151.624 285.873 151.399 285.84 151.146 285.84C150.953 285.84 150.776 285.862 150.616 285.905C150.459 285.948 150.326 286.01 150.216 286.09C150.106 286.167 150.021 286.258 149.961 286.365C149.901 286.472 149.871 286.592 149.871 286.725C149.871 286.935 149.941 287.105 150.081 287.235C150.221 287.365 150.483 287.472 150.866 287.555L152.106 287.81C152.549 287.897 152.901 288.025 153.161 288.195C153.424 288.365 153.621 288.557 153.751 288.77C153.884 288.983 153.971 289.202 154.011 289.425C154.054 289.645 154.076 289.848 154.076 290.035C154.076 290.425 153.953 290.777 153.706 291.09C153.463 291.4 153.123 291.647 152.686 291.83C152.249 292.01 151.739 292.1 151.156 292.1ZM160.219 292.1C159.352 292.1 158.649 291.927 158.109 291.58C157.569 291.23 157.259 290.692 157.179 289.965L158.699 289.935C158.779 290.265 158.95 290.517 159.214 290.69C159.48 290.86 159.814 290.945 160.214 290.945C160.454 290.945 160.665 290.907 160.849 290.83C161.035 290.75 161.182 290.643 161.289 290.51C161.395 290.373 161.449 290.218 161.449 290.045C161.449 289.778 161.364 289.58 161.194 289.45C161.024 289.317 160.762 289.21 160.409 289.13L159.224 288.875C158.674 288.765 158.232 288.547 157.899 288.22C157.569 287.89 157.4 287.448 157.394 286.895C157.39 286.442 157.512 286.05 157.759 285.72C158.009 285.387 158.347 285.13 158.774 284.95C159.204 284.77 159.685 284.68 160.219 284.68C160.765 284.68 161.237 284.778 161.634 284.975C162.034 285.168 162.34 285.43 162.554 285.76C162.77 286.087 162.875 286.448 162.869 286.845L161.394 286.87C161.347 286.55 161.24 286.298 161.074 286.115C160.907 285.932 160.63 285.84 160.244 285.84C160.044 285.84 159.865 285.862 159.709 285.905C159.552 285.948 159.417 286.01 159.304 286.09C159.19 286.167 159.104 286.258 159.044 286.365C158.987 286.472 158.959 286.592 158.959 286.725C158.959 286.935 159.029 287.102 159.169 287.225C159.312 287.345 159.58 287.457 159.974 287.56L161.139 287.845C161.795 288.002 162.269 288.27 162.559 288.65C162.852 289.03 162.999 289.492 162.999 290.035C162.999 290.452 162.884 290.815 162.654 291.125C162.427 291.435 162.105 291.675 161.689 291.845C161.272 292.015 160.782 292.1 160.219 292.1ZM159.594 283.735H160.859V285.035H159.594V283.735ZM159.569 291.655H160.829V292.955H159.569V291.655ZM165.21 292V286.585H163.92V285.76C164.334 285.76 164.667 285.722 164.92 285.645C165.177 285.565 165.369 285.452 165.495 285.305C165.622 285.155 165.697 284.977 165.72 284.77H166.69V292H165.21ZM170.998 284.67C171.858 284.67 172.536 284.992 173.033 285.635C173.529 286.275 173.778 287.197 173.778 288.4C173.778 289.597 173.533 290.515 173.043 291.155C172.553 291.792 171.871 292.11 170.998 292.11C170.121 292.11 169.436 291.792 168.943 291.155C168.453 290.518 168.208 289.602 168.208 288.405C168.208 287.605 168.321 286.927 168.548 286.37C168.774 285.813 169.096 285.392 169.513 285.105C169.929 284.815 170.424 284.67 170.998 284.67ZM170.998 290.915C171.428 290.915 171.743 290.723 171.943 290.34C172.143 289.953 172.243 289.308 172.243 288.405C172.243 287.482 172.141 286.82 171.938 286.42C171.734 286.02 171.419 285.82 170.993 285.82C170.566 285.82 170.248 286.022 170.038 286.425C169.831 286.828 169.728 287.488 169.728 288.405C169.728 289.305 169.831 289.948 170.038 290.335C170.244 290.722 170.564 290.915 170.998 290.915ZM177.899 284.77H179.334V289.175H180.449V290.4H179.334V292H177.929L177.934 290.4H174.604V289.2L177.899 284.77ZM175.954 289.175H177.934V286.525L175.954 289.175ZM181.231 292V290.41H182.831V292H181.231ZM186.527 292.11C186.077 292.11 185.657 292.023 185.267 291.85C184.877 291.677 184.558 291.433 184.312 291.12C184.065 290.803 183.927 290.433 183.897 290.01H185.287C185.347 290.29 185.48 290.518 185.687 290.695C185.893 290.868 186.153 290.955 186.467 290.955C186.813 290.955 187.117 290.873 187.377 290.71C187.64 290.547 187.837 290.287 187.967 289.93C188.1 289.573 188.147 289.107 188.107 288.53C188.013 288.707 187.883 288.862 187.717 288.995C187.553 289.125 187.362 289.227 187.142 289.3C186.922 289.37 186.677 289.405 186.407 289.405C185.917 289.405 185.482 289.313 185.102 289.13C184.725 288.943 184.428 288.68 184.212 288.34C183.998 287.997 183.892 287.59 183.892 287.12C183.892 286.647 184.005 286.225 184.232 285.855C184.458 285.485 184.775 285.195 185.182 284.985C185.588 284.775 186.065 284.67 186.612 284.67C187.225 284.67 187.753 284.817 188.197 285.11C188.643 285.4 188.985 285.813 189.222 286.35C189.462 286.883 189.582 287.512 189.582 288.235C189.582 289.098 189.458 289.818 189.212 290.395C188.968 290.968 188.618 291.398 188.162 291.685C187.705 291.968 187.16 292.11 186.527 292.11ZM186.657 288.245C186.86 288.245 187.057 288.2 187.247 288.11C187.44 288.017 187.598 287.9 187.722 287.76C187.845 287.62 187.907 287.475 187.907 287.325C187.91 287.002 187.858 286.725 187.752 286.495C187.648 286.262 187.502 286.083 187.312 285.96C187.125 285.837 186.907 285.775 186.657 285.775C186.427 285.775 186.222 285.828 186.042 285.935C185.862 286.042 185.72 286.192 185.617 286.385C185.513 286.578 185.462 286.802 185.462 287.055C185.462 287.432 185.572 287.725 185.792 287.935C186.012 288.142 186.3 288.245 186.657 288.245ZM193.224 284.67C194.084 284.67 194.762 284.992 195.259 285.635C195.756 286.275 196.004 287.197 196.004 288.4C196.004 289.597 195.759 290.515 195.269 291.155C194.779 291.792 194.097 292.11 193.224 292.11C192.347 292.11 191.662 291.792 191.169 291.155C190.679 290.518 190.434 289.602 190.434 288.405C190.434 287.605 190.547 286.927 190.774 286.37C191.001 285.813 191.322 285.392 191.739 285.105C192.156 284.815 192.651 284.67 193.224 284.67ZM193.224 290.915C193.654 290.915 193.969 290.723 194.169 290.34C194.369 289.953 194.469 289.308 194.469 288.405C194.469 287.482 194.367 286.82 194.164 286.42C193.961 286.02 193.646 285.82 193.219 285.82C192.792 285.82 192.474 286.022 192.264 286.425C192.057 286.828 191.954 287.488 191.954 288.405C191.954 289.305 192.057 289.948 192.264 290.335C192.471 290.722 192.791 290.915 193.224 290.915ZM196.989 292V290.82H198.089V292H196.989Z" fill="#36536B"/>
</g>
<defs>
<filter id="filter0_d_0_4910" x="0.567871" y="0.569458" width="417.649" height="658.861" filterUnits="userSpaceOnUse" color-interpolation-filters="sRGB">
<feFlood flood-opacity="0" result="BackgroundImageFix"/>
<feColorMatrix in="SourceAlpha" type="matrix" values="0 0 0 0 0 0 0 0 0 0 0 0 0 0 0 0 0 0 127 0" result="hardAlpha"/>
<feOffset dx="25" dy="25"/>
<feGaussianBlur stdDeviation="40"/>
<feColorMatrix type="matrix" values="0 0 0 0 0.212302 0 0 0 0 0.32521 0 0 0 0 0.419299 0 0 0 0.300727 0"/>
<feBlend mode="normal" in2="BackgroundImageFix" result="effect1_dropShadow_0_4910"/>
<feBlend mode="normal" in="SourceGraphic" in2="effect1_dropShadow_0_4910" result="shape"/>
</filter>
<filter id="filter1_d_0_4910" x="70" y="217" width="248" height="117" filterUnits="userSpaceOnUse" color-interpolation-filters="sRGB">
<feFlood flood-opacity="0" result="BackgroundImageFix"/>
<feColorMatrix in="SourceAlpha" type="matrix" values="0 0 0 0 0 0 0 0 0 0 0 0 0 0 0 0 0 0 127 0" result="hardAlpha"/>
<feMorphology radius="10" operator="erode" in="SourceAlpha" result="effect1_dropShadow_0_4910"/>
<feOffset dx="10" dy="10"/>
<feGaussianBlur stdDeviation="12.5"/>
<feColorMatrix type="matrix" values="0 0 0 0 0.212302 0 0 0 0 0.32521 0 0 0 0 0.419299 0 0 0 0.25 0"/>
<feBlend mode="normal" in2="BackgroundImageFix" result="effect1_dropShadow_0_4910"/>
<feBlend mode="normal" in="SourceGraphic" in2="effect1_dropShadow_0_4910" result="shape"/>
</filter>
<linearGradient id="paint0_linear_0_4910" x1="63.0146" y1="55" x2="63.0146" y2="67.3239" gradientUnits="userSpaceOnUse">
<stop stop-color="#454545"/>
<stop offset="0.226279" stop-color="#999999"/>
<stop offset="1" stop-color="white"/>
</linearGradient>
<linearGradient id="paint1_linear_0_4910" x1="313.103" y1="140.747" x2="303.642" y2="140.747" gradientUnits="userSpaceOnUse">
<stop stop-color="white" stop-opacity="0.01"/>
<stop offset="0.222178" stop-color="#BABABA"/>
<stop offset="0.54678" stop-color="white" stop-opacity="0.01"/>
<stop offset="1" stop-color="white" stop-opacity="0.01"/>
</linearGradient>
<linearGradient id="paint2_linear_0_4910" x1="55.568" y1="140.487" x2="65.044" y2="140.487" gradientUnits="userSpaceOnUse">
<stop stop-color="white" stop-opacity="0.01"/>
<stop offset="0.222178" stop-color="#BABABA"/>
<stop offset="0.54678" stop-color="white" stop-opacity="0.01"/>
<stop offset="1" stop-color="white" stop-opacity="0.01"/>
</linearGradient>
<linearGradient id="paint3_linear_0_4910" x1="68.907" y1="67.4445" x2="68.907" y2="528.824" gradientUnits="userSpaceOnUse">
<stop stop-color="#9CB6CD"/>
<stop offset="0.420564" stop-color="#9AB3CA"/>
<stop offset="0.716592" stop-color="#557496"/>
<stop offset="1" stop-color="#475178"/>
</linearGradient>
<clipPath id="clip0_0_4910">
<rect width="233" height="465" fill="white" transform="translate(68.0742 67.4445)"/>
</clipPath>
<clipPath id="clip1_0_4910">
<rect width="218" height="87" fill="white" transform="translate(75 222)"/>
</clipPath>
<clipPath id="clip2_0_4910">
<rect width="187" height="11" fill="white" transform="translate(91 238)"/>
</clipPath>
</defs>
</svg>
